<svg xmlns="http://www.w3.org/2000/svg" width="55.867" height="66.7" viewBox="0 0 55.867 66.7"><g transform="translate(1 1)"><path d="M1512.271,1115.695h-11.664a1.68,1.68,0,0,1-1.68-1.68v-25.626a7.882,7.882,0,0,1,7.881-7.882" transform="translate(-1498.926 -1053.369)" fill="none" stroke="#6c6c6c" stroke-linecap="round" stroke-width="2"/><path d="M1515.677,1080.507a7.882,7.882,0,0,1,7.881,7.882" transform="translate(-1487.107 -1053.369)" fill="none" stroke="#6c6c6c" stroke-linecap="round" stroke-width="2"/><line y2="21.988" transform="translate(6.701 40.338)" fill="none" stroke="#6c6c6c" stroke-linecap="round" stroke-width="2"/><path d="M1504.354,1077.112l4.64,1.94,4.356,5.8" transform="translate(-1495.096 -1055.765)" fill="none" stroke="#6c6c6c" stroke-linecap="round" stroke-width="2"/><path d="M1518.735,1077.112l-4.64,1.94-4.466,5.8" transform="translate(-1491.374 -1055.765)" fill="none" stroke="#6c6c6c" stroke-linecap="round" stroke-width="2"/><line y1="3.022" transform="translate(8.034 24.116)" fill="none" stroke="#6c6c6c" stroke-linecap="round" stroke-width="2"/><line y1="3.022" transform="translate(28.479 24.116)" fill="none" stroke="#6c6c6c" stroke-linecap="round" stroke-width="2"/><g transform="translate(17.904 38.662)"><path d="M1523.99,1097.087a.9.9,0,0,1,0,1.547l-4.52,2.671a.9.9,0,0,1-1.23-.316.911.911,0,0,1-.126-.459v-5.34a.9.9,0,0,1,1.356-.772Z" transform="translate(-1503.291 -1082.304)" fill="none" stroke="#6c6c6c" stroke-linecap="round" stroke-width="2"/><path d="M1540.772,1090.24v18.571a2.391,2.391,0,0,1-2.391,2.391h-24.652a2.391,2.391,0,0,1-2.391-2.391v-15.43" transform="translate(-1508.073 -1085.164)" fill="none" stroke="#6c6c6c" stroke-linecap="round" stroke-width="2"/><rect width="35.964" height="5.076" rx="1" fill="none" stroke="#6c6c6c" stroke-linecap="round" stroke-width="2"/><g transform="translate(18.958 0.506)"><line x2="2.479" y2="4.294" fill="none" stroke="#6c6c6c" stroke-linecap="round" stroke-width="2"/><line x2="2.479" y2="4.294" transform="translate(4.231)" fill="none" stroke="#6c6c6c" stroke-linecap="round" stroke-width="2"/><line x2="2.479" y2="4.294" transform="translate(8.463)" fill="none" stroke="#6c6c6c" stroke-linecap="round" stroke-width="2"/></g></g><ellipse cx="9.655" cy="9.655" rx="9.655" ry="9.655" transform="translate(8.571)" fill="none" stroke="#6c6c6c" stroke-miterlimit="10" stroke-width="2"/><line y1="10.772" x2="28.206" transform="translate(3.291 1.761)" fill="none" stroke="#6c6c6c" stroke-linecap="round" stroke-width="2"/></g></svg>