<svg xmlns="http://www.w3.org/2000/svg" width="64.815" height="69.474" viewBox="0 0 64.815 69.474"><g transform="translate(1 1.003)"><path d="M1518.618,1227.778a9.654,9.654,0,1,1-18.473.1" transform="translate(-1492.877 -1217.419)" fill="none" stroke="#6c6c6c" stroke-miterlimit="10" stroke-width="2"/><path d="M1499,1232.164l4.083-9.238a1.393,1.393,0,0,1,2.093-.573l2.652,1.916a1.394,1.394,0,0,0,1.706-.058l2.63-2.185a1.393,1.393,0,0,1,2.053.307l6.254,9.527" transform="translate(-1493.401 -1221.705)" fill="none" stroke="#6c6c6c" stroke-linecap="round" stroke-width="2"/><path d="M1517.59,1272.8H1497.4a1.68,1.68,0,0,1-1.68-1.68v-25.626a7.88,7.88,0,0,1,7.88-7.882" transform="translate(-1495.717 -1210.481)" fill="none" stroke="#6c6c6c" stroke-linecap="round" stroke-width="2"/><path d="M1514.228,1238.67a7.848,7.848,0,0,0-3.945-1.058" transform="translate(-1485.44 -1210.481)" fill="none" stroke="#6c6c6c" stroke-linecap="round" stroke-width="2"/><line y2="21.988" transform="translate(6.7 40.332)" fill="none" stroke="#6c6c6c" stroke-linecap="round" stroke-width="2"/><g transform="translate(12.108 26.863)"><line x2="4.356" y2="5.796" fill="none" stroke="#6c6c6c" stroke-linecap="round" stroke-width="2"/><line x1="4.466" y2="5.796" transform="translate(4.356)" fill="none" stroke="#6c6c6c" stroke-linecap="round" stroke-width="2"/></g><g transform="translate(29.305 19.611)"><path d="M1514.906,1237.842v-3.121a1.518,1.518,0,0,1,1.516-1.518h1.48a1.518,1.518,0,0,1,1.518,1.518v3.121" transform="translate(-1511.483 -1233.203)" fill="none" stroke="#6c6c6c" stroke-linecap="round" stroke-width="2"/><path d="M1527.845,1237.842v-3.121a1.518,1.518,0,0,1,1.516-1.518h1.48a1.518,1.518,0,0,1,1.518,1.518v3.121" transform="translate(-1502.354 -1233.203)" fill="none" stroke="#6c6c6c" stroke-linecap="round" stroke-width="2"/><path d="M1535.929,1235.923h8.577a1.9,1.9,0,0,1,1.9,1.9v14.112a1.9,1.9,0,0,1-1.9,1.9H1514.8a1.9,1.9,0,0,1-1.9-1.9v-14.112a1.9,1.9,0,0,1,1.9-1.9h17.443" transform="translate(-1512.899 -1231.284)" fill="none" stroke="#6c6c6c" stroke-linecap="round" stroke-width="2"/><line y2="7.848" transform="translate(3.423 22.557)" fill="none" stroke="#6c6c6c" stroke-linecap="round" stroke-width="2"/><line y2="7.848" transform="translate(7.937 22.557)" fill="none" stroke="#6c6c6c" stroke-linecap="round" stroke-width="2"/><line y2="7.848" transform="translate(25.491 22.557)" fill="none" stroke="#6c6c6c" stroke-linecap="round" stroke-width="2"/><line y2="7.848" transform="translate(30.006 22.557)" fill="none" stroke="#6c6c6c" stroke-linecap="round" stroke-width="2"/><path d="M1525.041,1239.121l.909,1.844a.568.568,0,0,0,.428.311l2.033.295a.569.569,0,0,1,.316.971l-1.472,1.435a.574.574,0,0,0-.164.5l.348,2.026a.568.568,0,0,1-.826.6l-1.818-.955a.57.57,0,0,0-.53,0l-1.818.955a.568.568,0,0,1-.826-.6l.348-2.026a.574.574,0,0,0-.164-.5l-1.472-1.435a.569.569,0,0,1,.316-.971l2.033-.295a.568.568,0,0,0,.428-.311l.911-1.844A.568.568,0,0,1,1525.041,1239.121Z" transform="translate(-1507.775 -1229.251)" fill="none" stroke="#6c6c6c" stroke-linecap="round" stroke-width="2"/><rect width="33.501" height="4.515" rx="1" transform="translate(33.505 34.919) rotate(180)" fill="none" stroke="#6c6c6c" stroke-linecap="round" stroke-width="2"/><path d="M1522.386,1253.676l4.649,2.309,12.725,6.321a1.514,1.514,0,0,1,.682,2.03l-.662,1.332a1.515,1.515,0,0,1-2.03.682l-10.713-5.321-3.082-1.53-1.987-.988-5.057-2.512" transform="translate(-1510.067 -1218.758)" fill="none" stroke="#6c6c6c" stroke-linecap="round" stroke-width="2"/><path d="M1525.829,1258.511l7.641-3.795a1.511,1.511,0,0,0,.807-1.039" transform="translate(-1503.776 -1218.757)" fill="none" stroke="#6c6c6c" stroke-linecap="round" stroke-width="2"/><path d="M1523.386,1256.511l-7.639,3.8a1.514,1.514,0,0,0-.682,2.03l.66,1.332a1.515,1.515,0,0,0,2.03.682l6.469-3.213,4.228-2.1" transform="translate(-1511.483 -1216.757)" fill="none" stroke="#6c6c6c" stroke-linecap="round" stroke-width="2"/><line x1="4.677" y2="2.323" transform="translate(16.962 34.919)" fill="none" stroke="#6c6c6c" stroke-linecap="round" stroke-width="2"/></g><path d="M1504.318,1238.8l-1.594,12.142a1.7,1.7,0,0,0,.5,1.439l3.049,2.993a1.7,1.7,0,0,0,2.446-.058l2.729-2.944a1.711,1.711,0,0,0,.44-1.381l-1.6-12.192" transform="translate(-1490.784 -1209.64)" fill="none" stroke="#6c6c6c" stroke-linecap="round" stroke-width="2"/><line x2="28.064" transform="translate(2.487 10.46)" fill="none" stroke="#6c6c6c" stroke-linecap="round" stroke-width="2"/></g></svg>