<svg xmlns="http://www.w3.org/2000/svg" width="49" height="49.946" viewBox="0 0 49 49.946"><g transform="translate(-298 -3346.054)"><rect width="4" height="27" transform="translate(304 3369)"/><rect width="4" height="27" transform="translate(340 3369)"/><rect width="40" height="4" transform="translate(304 3392)"/><path d="M3.866,1.457a1,1,0,0,1,1.722,0L8.563,6.491A1,1,0,0,1,7.7,8H1.752A1,1,0,0,1,.892,6.491Z" transform="translate(329 3377) rotate(90)"/><g transform="translate(1.589 0.249)"><g transform="translate(298 3363)"><g transform="translate(0.411 -0.249)" stroke="#000" stroke-width="1"><rect width="47" height="8" rx="2" stroke="none"/><rect x="0.5" y="0.5" width="46" height="7" rx="1.5" fill="none"/></g><g transform="translate(12.19)" fill="#fff"><path d="M 9.101079940795898 6.751535892486572 L 4.214288711547852 6.751535892486572 L 1.213526844978333 0.7499960660934448 L 6.10031795501709 0.7499960660934448 L 9.101079940795898 6.751535892486572 Z" stroke="none"/><path d="M 2.427050590515137 1.499996185302734 L 4.677814483642578 6.001535892486572 L 7.887556076049805 6.001535892486572 L 5.636792182922363 1.499996185302734 L 2.427050590515137 1.499996185302734 M 2.86102294921875e-06 -3.814697265625e-06 L 6.563843250274658 -3.814697265625e-06 L 10.31460380554199 7.501535892486572 L 3.750763416290283 7.501535892486572 L 2.86102294921875e-06 -3.814697265625e-06 Z" stroke="none"/></g><g transform="translate(22.505)" fill="#fff"><path d="M 9.101079940795898 6.751535892486572 L 4.214288711547852 6.751535892486572 L 1.213526844978333 0.7499960660934448 L 6.10031795501709 0.7499960660934448 L 9.101079940795898 6.751535892486572 Z" stroke="none"/><path d="M 2.427050590515137 1.499996185302734 L 4.677814483642578 6.001535892486572 L 7.887556076049805 6.001535892486572 L 5.636792182922363 1.499996185302734 L 2.427050590515137 1.499996185302734 M 2.86102294921875e-06 -3.814697265625e-06 L 6.563843250274658 -3.814697265625e-06 L 10.31460380554199 7.501535892486572 L 3.750763416290283 7.501535892486572 L 2.86102294921875e-06 -3.814697265625e-06 Z" stroke="none"/></g><g transform="translate(32.819)" fill="#fff"><path d="M 9.101079940795898 6.751535892486572 L 4.214288711547852 6.751535892486572 L 1.213526844978333 0.7499960660934448 L 6.10031795501709 0.7499960660934448 L 9.101079940795898 6.751535892486572 Z" stroke="none"/><path d="M 2.427050590515137 1.499996185302734 L 4.677814483642578 6.001535892486572 L 7.887556076049805 6.001535892486572 L 5.636792182922363 1.499996185302734 L 2.427050590515137 1.499996185302734 M 2.86102294921875e-06 -3.814697265625e-06 L 6.563843250274658 -3.814697265625e-06 L 10.31460380554199 7.501535892486572 L 3.750763416290283 7.501535892486572 L 2.86102294921875e-06 -3.814697265625e-06 Z" stroke="none"/></g></g></g><g transform="matrix(0.966, -0.259, 0.259, 0.966, -860.587, 187.285)"><g transform="translate(298 3363)"><g transform="translate(0.411 -0.249)" stroke="#000" stroke-width="1"><rect width="47" height="8" rx="2" stroke="none"/><rect x="0.5" y="0.5" width="46" height="7" rx="1.5" fill="none"/></g><g transform="translate(12.19)" fill="#fff"><path d="M 9.101079940795898 6.751535892486572 L 4.214288711547852 6.751535892486572 L 1.213526844978333 0.7499960660934448 L 6.10031795501709 0.7499960660934448 L 9.101079940795898 6.751535892486572 Z" stroke="none"/><path d="M 2.427050590515137 1.499996185302734 L 4.677814483642578 6.001535892486572 L 7.887556076049805 6.001535892486572 L 5.636792182922363 1.499996185302734 L 2.427050590515137 1.499996185302734 M 2.86102294921875e-06 -3.814697265625e-06 L 6.563843250274658 -3.814697265625e-06 L 10.31460380554199 7.501535892486572 L 3.750763416290283 7.501535892486572 L 2.86102294921875e-06 -3.814697265625e-06 Z" stroke="none"/></g><g transform="translate(22.505)" fill="#fff"><path d="M 9.101079940795898 6.751535892486572 L 4.214288711547852 6.751535892486572 L 1.213526844978333 0.7499960660934448 L 6.10031795501709 0.7499960660934448 L 9.101079940795898 6.751535892486572 Z" stroke="none"/><path d="M 2.427050590515137 1.499996185302734 L 4.677814483642578 6.001535892486572 L 7.887556076049805 6.001535892486572 L 5.636792182922363 1.499996185302734 L 2.427050590515137 1.499996185302734 M 2.86102294921875e-06 -3.814697265625e-06 L 6.563843250274658 -3.814697265625e-06 L 10.31460380554199 7.501535892486572 L 3.750763416290283 7.501535892486572 L 2.86102294921875e-06 -3.814697265625e-06 Z" stroke="none"/></g><g transform="translate(32.819)" fill="#fff"><path d="M 9.101079940795898 6.751535892486572 L 4.214288711547852 6.751535892486572 L 1.213526844978333 0.7499960660934448 L 6.10031795501709 0.7499960660934448 L 9.101079940795898 6.751535892486572 Z" stroke="none"/><path d="M 2.427050590515137 1.499996185302734 L 4.677814483642578 6.001535892486572 L 7.887556076049805 6.001535892486572 L 5.636792182922363 1.499996185302734 L 2.427050590515137 1.499996185302734 M 2.86102294921875e-06 -3.814697265625e-06 L 6.563843250274658 -3.814697265625e-06 L 10.31460380554199 7.501535892486572 L 3.750763416290283 7.501535892486572 L 2.86102294921875e-06 -3.814697265625e-06 Z" stroke="none"/></g></g></g></g></svg>