<svg xmlns="http://www.w3.org/2000/svg" width="31" height="51.5" viewBox="0 0 31 51.5"><g transform="translate(-497 -1897.555)"><path d="M5,0H26a5,5,0,0,1,5,5V29a0,0,0,0,1,0,0H0a0,0,0,0,1,0,0V5A5,5,0,0,1,5,0Z" transform="translate(497 1918.555)"/><circle cx="9" cy="9" r="9" transform="translate(503 1897.555)"/><path d="M-8845.127,1928l8.3,20.034,8.211-20.034Z" transform="translate(9349.127 -10.046)" fill="#fff"/><path d="M-8839.127,1929l1,2.937h2.5l1-2.937Z" transform="translate(9349.127 -11.046)"/><path d="M0,0H2.5l4,17H-4Z" transform="translate(511 1921.555)"/><line y1="16.5" transform="translate(503 1931.555)" fill="none" stroke="#fff" stroke-linecap="round" stroke-width="2"/><line y1="16.5" transform="translate(522 1931.555)" fill="none" stroke="#fff" stroke-linecap="round" stroke-width="2"/></g></svg>