<svg xmlns="http://www.w3.org/2000/svg" xmlns:xlink="http://www.w3.org/1999/xlink" width="492.786" height="108.521" viewBox="0 0 492.786 108.521"><defs><clipPath id="a"><path d="M26.871-28a24.637,24.637,0,0,1,3.861,4.212h.39l2.145-1.521.039-.39a25.01,25.01,0,0,0-3.978-4.134l-.39.039L26.91-28.353Zm3.666-2.457A23.469,23.469,0,0,1,34.359-26.4h.39l2.028-1.482.039-.39a23.6,23.6,0,0,0-3.861-4.017l-.39.039L30.576-30.81ZM8.112-24.141a33.035,33.035,0,0,1,7.41,4.446l.429-.078,3.237-4.446-.078-.429a35.6,35.6,0,0,0-7.449-4.173l-.468.078L8.034-24.531ZM4.134-14.625a26.443,26.443,0,0,0,8.58,2.964l.351-.195,1.6-5.187-.195-.312a31.035,31.035,0,0,1-7.995-2.613l-.351.156L4.017-14.976Zm29.991-9.2A59.535,59.535,0,0,1,6.279-5.343l-.117.429L9.477.351l.429.078C19.773-3.237,29.679-9.36,35.568-16.146c.312-.351.429-.546.429-.819a2.392,2.392,0,0,0-.117-.624ZM53.586-12.09l1.287,4.1,2.808,9.516,5.343-1.6L59.787-9.945l-1.092-3.549,5.148-1.443a32.291,32.291,0,0,1-3.393,4.485l3.939,1.716c.468.2.624.2,1.053-.234a39.126,39.126,0,0,0,5.421-7.956,1.458,1.458,0,0,0,.195-.585c0-.234-.117-.39-.39-.624l-3.159-2.691-3.042.975L57.33-17.94,55.614-23.4l-.312-.156L50.7-22.23l-.2.312,1.716,5.343-1.326.351-4.758,1.17-.117.312,1.287,4.329.39.117,4.446-1.365ZM83.5-22.386a45.685,45.685,0,0,1,7.644,5.85l.351-.039,4.056-4.719v-.39a41.285,41.285,0,0,0-7.917-5.382l-.39.078L83.46-22.737Zm28.041-3.237A70.634,70.634,0,0,1,83.928-5.772l-.078.39L87.36-.117l.39.078c10.3-4.68,18.759-10.374,25.7-18.018.273-.273.39-.429.39-.7a2.092,2.092,0,0,0-.156-.741ZM145.7-28.938a24.636,24.636,0,0,1,3.861,4.212h.39l2.145-1.521.039-.39a25.011,25.011,0,0,0-3.978-4.134l-.39.039-2.028,1.443ZM149.37-31.4a23.469,23.469,0,0,1,3.822,4.056h.39l2.028-1.482.039-.39a23.6,23.6,0,0,0-3.861-4.017l-.39.039-1.989,1.443Zm-26.13,6.279-.351.234v5.226l.273.312,5.343-.117h13.533V-9.009h-14l-4.914-.117-.351.234v5.226l.273.312,5.148-.117h14.859l5.382.117.273-.312L148.59-8.7V-20.163l.117-4.719-.351-.234-5.5.117H128.349Zm39-2.457v5.382l.351.234,5.967-.117h13.221A22.952,22.952,0,0,1,176.865-11.9c-3.2,3.861-7.527,6.552-14.2,8.775L167.427.7c.39.312.585.429.819.429A1.927,1.927,0,0,0,168.987.9c5.928-2.613,10.335-5.577,13.416-9.516a33.375,33.375,0,0,0,6.942-18.837l-.312-.273H168.48l-5.928-.117ZM216.1-15.054c1.677-1.443,3.549-3.12,5.577-5.187l-.039-.351-4.173-2.964-.39.039a52.435,52.435,0,0,1-18.213,13.494l3.705,3.2c.429.39.507.429,1.092.156A75.943,75.943,0,0,0,210.6-11V-7.6l-.156,8.7h5.811L216.1-7.8Zm39-11.661-.312-.312h-5.538l-.312.273v16.77l-.312,4.407,3.783,3.042c.273.195.429.312.624.312a1.793,1.793,0,0,0,.9-.39,67.346,67.346,0,0,0,14.742-12.129,1.011,1.011,0,0,0,.351-.7,3.532,3.532,0,0,0-.2-.858l-1.716-5.733A53.972,53.972,0,0,1,255.1-10.92ZM237-1.443a1.231,1.231,0,0,0,.624.2c.273,0,.468-.156.858-.546,4.563-5.07,7.722-12.09,8.151-21.372l-.312-.312-5.5-.468-.351.273c-.273,8.736-3.2,15.366-8.424,19.851ZM273.858-6.2l1.755,5.46.351.156c8.424-1.326,15.561-2.652,22.62-4.212.624,1.248,1.248,2.5,1.833,3.783l.429.117,5.07-2.925.078-.429a64.373,64.373,0,0,0-8.424-13.065h-.351l-4.29,2.613-.117.39a52.148,52.148,0,0,1,3.042,4.6c-3.471.7-7.1,1.326-10.608,1.794,2.3-6.357,4.407-12.675,6.747-20.592l-.2-.273-5.811-1.17-.351.117c-2.223,8.112-4.368,15.327-6.864,22.776-1.521.2-3.081.351-4.719.546Z" transform="translate(624 1098)" fill="red"/></clipPath><linearGradient id="b" y1="1" x2="1" gradientUnits="objectBoundingBox"><stop offset="0" stop-color="#ff0007"/><stop offset="0.32" stop-color="#ff9300"/><stop offset="1" stop-color="#ff0007"/></linearGradient><clipPath id="c"><path d="M60.48-53.55H37.107v48.7h9.135v-40.32H60.48Zm-2.016,2.079v4.284H43.974V-6.93h-4.6V-51.471Zm40.194.252-9.324-.315-.441.441c.252,11.718-.63,19.467-2.079,25.074-2.9,11.214-10.962,18.9-22.869,24.444l6.3,7.056a1.175,1.175,0,0,0,.63.315,2.4,2.4,0,0,0,.819-.252C82.656.189,91.035-8.505,94.878-19.152A50.009,50.009,0,0,0,117.684,5.1a2.356,2.356,0,0,0,.945.315.871.871,0,0,0,.693-.378l5.985-7.812C112.014-9.7,103.194-17.829,98.28-33.39A172.316,172.316,0,0,0,99.1-50.778Zm79.38,51.03L177.786-9.2l-.5-.378a184.563,184.563,0,0,1-19.4,1.26c-7.434,0-12.789-.945-12.789-5.166,0-2.961,2.205-5.607,7.119-8.442a6.489,6.489,0,0,0,4.347,1.7,4.644,4.644,0,0,0,4.536-4.095,4.067,4.067,0,0,1,1.7-3.15c3.654-1.575,9.261-3.717,14.742-5.544l.252-.5-3.717-8.253-.63-.252a180.8,180.8,0,0,0-18.459,7.938,171.1,171.1,0,0,1-8.946-14.679l-.63-.189-7.623,3.969-.126.63a172.569,172.569,0,0,0,9.2,14.994c-6.678,4.725-11.4,10.206-11.4,15.939,0,9.891,7.245,14.49,22.365,14.49,7.938,0,14.049-.252,19.845-.693Zm59.22-41.2c.756-1.134,1.512-2.268,2.205-3.4h2.583l8.316.189.378-.315V-51.66l-.378-.315-8.316.189H228.5l-8.316-.189-.378.378v6.615l.441.378,8.253-.189h1.26c-.441,1.134-.945,2.268-1.449,3.4l-7.623-.189-.441.378.189,6.867V-15.75l-.189,8.82.441.441,5.922-.126C222.39-3.4,218.295-1.575,211.05.693l4.221,5.229a1.44,1.44,0,0,0,1.2.63,4.336,4.336,0,0,0,.819-.126c4.473-1.26,10.4-4.221,16.38-8.253a46.8,46.8,0,0,1,11.97,8l.756-.189L251.307.063l-.126-.63a46.042,46.042,0,0,0-10.836-6.111h.63l6.111.189.567-.441-.189-9.135V-34.02l.189-7.056-.5-.5-8.064.189ZM233.919-2.709l-5.04-3.969h9.009ZM228.375-25.7h10.773v3.213H228.375Zm0-5.922v-3.213h10.773v3.213Zm0,15.057h10.773v3.339H228.375ZM190.449-4.788l2.142,7.182.567.315a212.462,212.462,0,0,0,24.129-6.615c1.071-.378,1.2-.693,1.2-1.827V-11.34l-5.292,1.512c1.008-2.142,1.953-4.473,2.9-7.119l-.063-.693L207.9-20.034l-.63.252A119.646,119.646,0,0,1,204.5-7.812c-4.788,1.008-9.387,1.827-13.734,2.457Zm9.954-16.7h9.072l6.552.189.5-.567-.189-6.426v-5.985l.189-6.111-.441-.441-6.174.189h-9.891l-6.174-.189-.441.441.189,6.111v5.8l-.315,6.678.441.5Zm.567-6.741v-5.733h7.686v5.733Zm-1.386-16.128H209.79l8.316.189.378-.315v-6.741l-.378-.315-8.316.189H199.584l-8.316-.189-.378.378v6.615l.441.378Zm-6.426,26.775-.252.441a63.458,63.458,0,0,1,3.15,9.2l.5.315,7.371-2.268.252-.5a42.441,42.441,0,0,0-3.78-8.946l-.441-.126ZM288.54-31.059,285.768-28.1v-2.961l-.378-.441h-6.8l-.567.441V-9.387L277.7,5.859h8.064V3.024h18.144V5.166h8.253l-.378-15.309V-31.059l-.441-.441h-6.93l-.5.441v16.947c-1.26-1.764-2.646-3.528-4.032-5.229a79.523,79.523,0,0,0,4.284-13.23l-.315-.5-6.111-2.205-.441.189a61.466,61.466,0,0,1-2.646,9.576,66.226,66.226,0,0,0-5.607-5.544Zm-2.772,6.111c2.016,2.079,3.906,4.284,5.733,6.489a46.221,46.221,0,0,1-5.733,8.568Zm14.3,17.829,3.843-4.032v6.8H285.768V-7.938l3.591,2.961c.378.315.63.5.945.5a1.079,1.079,0,0,0,.756-.5,46.27,46.27,0,0,0,5.229-7.119c1.134,1.7,2.268,3.339,3.213,4.977Zm-32.382-7.749V-4.662c0,1.638-.441,1.764-1.449,1.89a33.141,33.141,0,0,1-3.591,0l2.331,7.686c.189.63.378.756,1.638.756,7.371,0,9.387-1.512,9.324-8.505l-.126-18.018-.063-21.609.189-9.2L275.5-52.1l-6.8.189H263.34l-6.8-.189-.441.441.189,9.2v20.979c0,12.348-1.071,16.569-3.339,21.987l4.662,5.166c.315.315.567.5.819.5.315,0,.63-.252.945-.693,2.772-4.725,4.221-10.458,4.662-20.349Zm0-7.245h-3.465v-7.938h3.465Zm0-15.183h-3.465v-7.371h3.465ZM313.3-49.644l-8-3.213-.567.315a69.228,69.228,0,0,1-5.67,14.994l6.3,2.205a1.9,1.9,0,0,0,.756.189c.315,0,.5-.189.756-.5a79.316,79.316,0,0,0,6.615-13.356ZM289.422-38.43l.189-.63a41.384,41.384,0,0,0-5.292-11.718l-.693-.252-6.3,2.9-.189.567a59.913,59.913,0,0,1,4.6,12.159l.63.189Zm11.088-2.52.126-.567a62.953,62.953,0,0,0-4.851-11.592l-.5-.189-6.615,2.52-.252.5a75.026,75.026,0,0,1,4.158,12.033l.567.189Zm66.4-10.962a37.912,37.912,0,0,1,6.174,6.552h.63l3.276-2.394.063-.63a38.116,38.116,0,0,0-6.237-6.489l-.63.063-3.213,2.331Zm-5.922,3.969a39.8,39.8,0,0,1,6.237,6.8h.63l3.465-2.457.063-.63a40.4,40.4,0,0,0-6.426-6.678l-.63.063-3.276,2.331ZM320.04,1.449l8.316,2.079.693-.189c3.465-12.222,6.615-21.987,10.836-33.957,1.575-.126,3.024-.252,4.158-.252,2.772,0,3.213.756,3.213,4.536a69.8,69.8,0,0,1-2.268,16.443c-.945,2.961-1.827,3.339-3.843,3.339a22.006,22.006,0,0,1-6.3-1.386l.756,8.946c.063.882.252,1.008.693,1.134a29.929,29.929,0,0,0,7.749,1.134c3.339,0,7.5-1.512,9.765-8.631,1.7-4.914,2.835-13.23,2.9-21.546.063-9.2-4.851-12.411-10.08-12.411-1.2,0-2.394.063-3.654.126q1.607-4.631,3.591-10.017l-.189-.693-8.505-2.079-.63.315c-1.638,4.851-3.087,9.324-4.6,13.671-4.347.63-9.009,1.2-13.986,1.575l-.378.441,1.386,7.623.5.378c3.15-.378,6.552-.819,9.45-1.26-3.213,9.639-6.363,19.215-9.765,30.177Zm37.233-37.737c4.788,5.355,8.379,12.789,10.836,20.034l.567.126,7.875-4.536.252-.63a62.3,62.3,0,0,0-12.1-19.845h-.63L357.4-36.918Zm56.511-12.6V-53.55l-.5-.441h-8.316l-.441.5v4.6H390.411l-9.576-.189-.378.378v6.678l.441.378,9.513-.189h14.112v3.465H395.64l-8.316-.189-.378.378v6.552l.441.378,8.253-.189h27.4l8.316.189.378-.315v-6.678l-.378-.315-8.316.189h-9.261v-3.465h14.679l9.576.189.378-.315v-6.8l-.378-.315-9.576.189ZM380.9-21.672l-.315,7.308h9.072v-7.182H429.03v7.056h9.324l-.315-7.182v-1.7l.189-4.977-.441-.441-10.458.189H391.608l-10.458-.189-.441.441.189,5.544ZM431.172-9.135c-.189,3.087-.567,4.725-1.323,5.418-.567.567-2.2.756-5.8.756-3.276,0-3.528-.189-3.528-1.827V-19.026l-.5-.441h-7.938l-.441.441V-8.757l-.126,7.434c0,5.166,1.575,6.489,11.277,6.489,8,0,11.34-.378,13.1-1.764,1.953-1.512,2.961-3.969,3.339-8.442.063-.945-.189-1.134-1.071-1.449Zm-25.263-10.08-7.938-.315-.5.441C397.4-7.749,392.8-3.276,379.638-1.008l4.851,6.615a1.111,1.111,0,0,0,.945.567,3.772,3.772,0,0,0,.756-.126c14.616-3.15,20.1-10.584,20.286-24.822Zm54.81-31.626a103.173,103.173,0,0,1-2.079,13.23c-1.26,5.544-2.394,10.647-2.394,15.5a25.048,25.048,0,0,0,2.52,10.962l.63.252,7.938-1.89.315-.63a22.314,22.314,0,0,1-1.638-7.812,18.052,18.052,0,0,1,1.323-7.686c1.2-3.15,4.221-6.363,6.615-6.363a3.581,3.581,0,0,1,3.78,2.52c.882,2.016,1.2,5.67,1.2,9.576,0,11.4-3.465,17.451-18.27,21.105l6.489,6.363a1.763,1.763,0,0,0,1.2.567,5.83,5.83,0,0,0,1.2-.252C484.407-.441,489.2-9.387,489.2-22.428c0-6.993-1.008-12.159-3.717-15.939-2.772-3.78-5.544-4.977-9.135-4.977a10.344,10.344,0,0,0-8.82,4.851c.693-2.331,1.2-3.717,1.638-5.544.378-1.827.63-3.276,1.008-6.174l-.441-.5-8.505-.567ZM506.52,5.67h23.373v-48.7h-9.135v40.32H506.52Zm2.016-2.079V-.693h14.49V-40.95h4.6V3.591Z" transform="translate(399.893 1042.873)" fill="red"/></clipPath></defs><g transform="translate(-437 -988)"><g transform="translate(-96.016 -3)" clip-path="url(#a)"><path d="M0,66.995H900V0H0Z" transform="translate(611 1044.807)" fill="url(#b)"/></g><g clip-path="url(#c)"><path d="M0,88.234H1452.276V0H0Z" transform="translate(422.872 971.751)" fill="url(#b)"/></g></g></svg>