<svg xmlns="http://www.w3.org/2000/svg" width="42" height="42.358" viewBox="0 0 42 42.358"><g transform="translate(-789 -3348.642)"><rect width="4" height="33" transform="translate(789 3358)"/><rect width="9" height="33" transform="translate(822 3358)"/><rect width="42" height="4" transform="translate(789 3387)"/><rect width="42" height="4" transform="translate(789 3358)"/><path d="M-8663.368,2794.833l-5.19-9.073" transform="translate(9472.059 564.929)" fill="none" stroke="#000" stroke-linecap="round" stroke-width="3"/><path d="M-8668.559,2794.833l5.19-9.073" transform="translate(9480.059 564.929)" fill="none" stroke="#000" stroke-linecap="round" stroke-width="3"/><path d="M0,0V3.138" transform="translate(825 3374.252) rotate(-90)" fill="none" stroke="#fff" stroke-linecap="round" stroke-width="2"/><path d="M0,0V3.138" transform="translate(825 3379.252) rotate(-90)" fill="none" stroke="#fff" stroke-linecap="round" stroke-width="2"/><path d="M0,0V3.138" transform="translate(825 3384.252) rotate(-90)" fill="none" stroke="#fff" stroke-linecap="round" stroke-width="2"/><path d="M3.866,1.457a1,1,0,0,1,1.722,0L8.563,6.491A1,1,0,0,1,7.7,8H1.752A1,1,0,0,1,.892,6.491Z" transform="translate(813 3370) rotate(90)"/></g></svg>