<svg xmlns="http://www.w3.org/2000/svg" width="36.847" height="59.824" viewBox="0 0 36.847 59.824"><g transform="translate(-710.783 -1886.582)"><path d="M5,0H9.847a5,5,0,0,1,5,5V15.377a0,0,0,0,1,0,0H0a0,0,0,0,1,0,0V5A5,5,0,0,1,5,0Z" transform="translate(710.783 1931.029)"/><path d="M5,0H9.847a5,5,0,0,1,5,5V15.377a0,0,0,0,1,0,0H0a0,0,0,0,1,0,0V5A5,5,0,0,1,5,0Z" transform="translate(721.783 1899.029)"/><g transform="translate(732.783 1931.029)" fill="none" stroke="#000" stroke-width="3"><path d="M5,0H9.847a5,5,0,0,1,5,5V15.377a0,0,0,0,1,0,0H0a0,0,0,0,1,0,0V5A5,5,0,0,1,5,0Z" stroke="none"/><path d="M5,1.5H9.847a3.5,3.5,0,0,1,3.5,3.5v7.377a1.5,1.5,0,0,1-1.5,1.5H3a1.5,1.5,0,0,1-1.5-1.5V5A3.5,3.5,0,0,1,5,1.5Z" fill="none"/></g><circle cx="5.337" cy="5.337" r="5.337" transform="translate(712.869 1918.582)"/><circle cx="5.337" cy="5.337" r="5.337" transform="translate(723.869 1886.582)"/><circle cx="5.337" cy="5.337" r="5.337" transform="translate(734.869 1918.582)"/></g></svg>