<svg xmlns="http://www.w3.org/2000/svg" width="63.625" height="37.736" viewBox="0 0 63.625 37.736"><g transform="translate(-291.5 -3738.764)"><g transform="translate(35 10)"><ellipse cx="5" cy="3.5" rx="5" ry="3.5" transform="translate(288 3759.5)"/><ellipse cx="5" cy="3.5" rx="5" ry="3.5" transform="translate(310 3754.5)"/><line y1="28" transform="translate(297 3735)" fill="none" stroke="#000" stroke-linecap="round" stroke-width="2"/><line y1="28" transform="translate(319 3730)" fill="none" stroke="#000" stroke-linecap="round" stroke-width="2"/><path d="M.07-1.83,21.928-6.8" transform="translate(297 3736.761)" fill="none" stroke="#000" stroke-linecap="round" stroke-width="2"/><path d="M.07-1.83,21.928-6.8" transform="translate(297 3743.761)" fill="none" stroke="#000" stroke-linecap="round" stroke-width="2"/><path d="M-9047.93,3735.146v6.841l21.808-5.025v-6.619l-21.808,4.8Z" transform="translate(9345)"/></g><line y2="23.049" transform="translate(307.5 3747.451)" fill="none" stroke="#000" stroke-linecap="round" stroke-width="4"/><line y2="14" transform="translate(314.5 3752.277)" fill="none" stroke="#000" stroke-linecap="round" stroke-width="4"/><line y2="12.049" transform="translate(300.5 3753.451)" fill="none" stroke="#000" stroke-linecap="round" stroke-width="4"/><line y2="6" transform="translate(293.5 3756.346)" fill="none" stroke="#000" stroke-linecap="round" stroke-width="4"/><line y2="4" transform="translate(321.5 3756.356)" fill="none" stroke="#000" stroke-linecap="round" stroke-width="4"/></g></svg>