<svg xmlns="http://www.w3.org/2000/svg" width="45.396" height="49.21" viewBox="0 0 45.396 49.21"><g transform="translate(0.75 0.75)"><g transform="translate(0 0)"><path d="M1388.981,271.544V256.007a1.34,1.34,0,0,1,1.34-1.34h23.687a1.34,1.34,0,0,1,1.34,1.34v42.6" transform="translate(-1373.962 -254.667)" fill="none" stroke="#000" stroke-linecap="round" stroke-width="1.5"/><path d="M1412.919,287.468h7.413a1.334,1.334,0,0,1,1.334,1.334v1.1a1.335,1.335,0,0,1-1.334,1.336H1379.1a1.335,1.335,0,0,1-1.334-1.336v-1.1a1.334,1.334,0,0,1,1.334-1.334h29.528" transform="translate(-1377.77 -243.525)" fill="none" stroke="#000" stroke-linecap="round" stroke-width="1.5"/><rect width="1.883" height="4.394" rx="0.299" transform="translate(27.26 6.033)"/><rect width="1.883" height="4.394" rx="0.299" transform="translate(20.983 6.033)"/><rect width="1.883" height="4.394" rx="0.299" transform="translate(33.538 6.033)"/><rect width="1.883" height="4.394" rx="0.299" transform="translate(27.26 14.068)"/><rect width="1.883" height="4.394" rx="0.299" transform="translate(20.983 14.068)"/><rect width="1.883" height="4.394" rx="0.299" transform="translate(33.538 14.068)"/><rect width="1.883" height="4.394" rx="0.299" transform="translate(27.26 22.103)"/><rect width="1.883" height="4.394" rx="0.299" transform="translate(20.983 22.103)"/><path d="M1379.7,293.437v-22.2a1.34,1.34,0,0,1,1.34-1.34h11.446a1.34,1.34,0,0,1,1.34,1.34v18.853" transform="translate(-1377.114 -249.494)" fill="none" stroke="#000" stroke-linecap="round" stroke-width="1.5"/><g transform="translate(6.762 23.634)"><rect width="1.452" height="3.388" rx="0.299"/><rect width="1.452" height="3.388" rx="0.299" transform="translate(4.323)"/><rect width="1.452" height="3.388" rx="0.299" transform="translate(0 6.031)"/><rect width="1.452" height="3.388" rx="0.299" transform="translate(4.323 6.031)"/></g></g></g></svg>