<svg xmlns="http://www.w3.org/2000/svg" width="30.768" height="50.265" viewBox="0 0 30.768 50.265"><g transform="translate(0.75 0.75)"><path d="M1476.182,267.91h1.345a6.328,6.328,0,0,1,6.327,6.329v21.914a1.349,1.349,0,0,1-1.349,1.349h-26.57a1.349,1.349,0,0,1-1.349-1.349V274.239a6.329,6.329,0,0,1,6.329-6.329h1.815" transform="translate(-1454.587 -248.738)" fill="none" stroke="#000" stroke-linecap="round" stroke-width="1.5"/><ellipse cx="7.062" cy="7.062" rx="7.062" ry="7.062" transform="translate(7.572)" fill="none" stroke="#000" stroke-miterlimit="10" stroke-width="1.5"/><path d="M1470.216,281.757l-2.943,2.07a1.019,1.019,0,0,1-1.168,0l-2.943-2.07a1.018,1.018,0,0,1-.417-1.006l1.925-11h4.038l1.925,11A1.013,1.013,0,0,1,1470.216,281.757Z" transform="translate(-1451.82 -248.114)" fill="none" stroke="#000" stroke-width="1.5"/><path d="M1464.272,266.56h4.239a.669.669,0,0,1,.654.812l-.754,3.458h-4.038l-.753-3.458A.669.669,0,0,1,1464.272,266.56Z" transform="translate(-1451.523 -249.197)" fill="none" stroke="#000" stroke-width="1.5"/><line y2="17.655" transform="translate(5.38 31.11)" fill="none" stroke="#000" stroke-linecap="round" stroke-width="1.5"/><line y2="17.655" transform="translate(23.887 31.11)" fill="none" stroke="#000" stroke-linecap="round" stroke-width="1.5"/></g></svg>