<svg xmlns="http://www.w3.org/2000/svg" width="142.945" height="84.359" viewBox="0 0 142.945 84.359"><g transform="translate(-948.576 -1900.976)"><path d="M7.944-3.7a16.805,16.805,0,0,0,2,1.854,5.916,5.916,0,0,0,1.7.81q.264.084.264.192,0,.048-.084.09a2.742,2.742,0,0,1-.594.09q-.51.048-.852.048a1.064,1.064,0,0,1-.552-.126,1.615,1.615,0,0,1-.45-.474L7.944-3.3q.012.852.084,1.842T8.1.2a3.529,3.529,0,0,1-.144,1.1q-.144.432-.276.432t-.27-.39A1.959,1.959,0,0,1,7.272.762a2.246,2.246,0,0,1,.036-.39,22.435,22.435,0,0,0,.228-3.756A6.239,6.239,0,0,1,6.5-1.746,6.35,6.35,0,0,1,5.2-.588a2.334,2.334,0,0,1-.882.432q-.084,0-.084-.066t.18-.2A9.85,9.85,0,0,0,6.138-2.058a8.08,8.08,0,0,0,.99-1.662q-.864.2-1.044.264a1.082,1.082,0,0,1-.342.06,1.1,1.1,0,0,1-.354-.066Q5.2-3.528,5.2-3.63t.24-.126q.444-.072,2.1-.456V-5.364A7,7,0,0,1,6.5-5.208a.649.649,0,0,1-.414-.132,5.072,5.072,0,0,1-.528.606q-.288.282-.36.282t-.072-.054a.319.319,0,0,1,.06-.15,4.639,4.639,0,0,0,.552-1.008,2.156,2.156,0,0,0,.156-.6.738.738,0,0,0-.03-.246.392.392,0,0,1-.03-.138q0-.168.186-.168a.942.942,0,0,1,.432.132q.246.132.246.252a.351.351,0,0,1-.072.216,4.419,4.419,0,0,0-.444.684,9.467,9.467,0,0,0,1.356-.4q0-1.536-.048-1.98A1.473,1.473,0,0,0,7.3-8.556a.649.649,0,0,1-.138-.324q0-.12.162-.12a1.528,1.528,0,0,1,.588.246q.426.246.426.5a.82.82,0,0,1-.072.276,1.978,1.978,0,0,0-.108.492q-.036.312-.12,1.392A4.388,4.388,0,0,1,9.132-6.36a.841.841,0,0,1,.426.084.234.234,0,0,1,.138.192q0,.156-.258.246t-1.446.354q-.024.336-.048,1.152l.828-.228a2.459,2.459,0,0,1,.81-.168,1.108,1.108,0,0,1,.588.15q.246.15.246.294t-.288.156A13,13,0,0,0,7.944-3.9Zm-4-1.848a3.014,3.014,0,0,1,.726-.132.719.719,0,0,1,.336.054A.152.152,0,0,1,5.1-5.5q0,.264-1.176.66-.036.648-.036,4.044A6.709,6.709,0,0,1,3.768.876q-.12.336-.252.336T3.24.858A1.6,1.6,0,0,1,3.1.306a1.466,1.466,0,0,1,.114-.5,5.81,5.81,0,0,0,.2-1.266q.084-.966.108-2.514a8.672,8.672,0,0,1-.978,1.836A5.383,5.383,0,0,1,1.512-.984,1.478,1.478,0,0,1,.9-.636q-.06,0-.06-.072a.372.372,0,0,1,.12-.2A10.753,10.753,0,0,0,2.2-2.556,15.688,15.688,0,0,0,3.336-4.68a8.184,8.184,0,0,1-1.356.228,1.332,1.332,0,0,1-.54-.1q-.216-.1-.216-.186t.228-.126l.924-.228Q3.192-5.3,3.516-5.4a7.339,7.339,0,0,0-.288-2.82.533.533,0,0,1-.144-.306q0-.126.186-.126a1.765,1.765,0,0,1,.588.168q.4.168.4.372a.832.832,0,0,1-.036.192A12.33,12.33,0,0,0,3.948-5.544ZM4.38-3.42a.887.887,0,0,1,.57.168.553.553,0,0,1,.21.456q0,.288-.192.288a1.262,1.262,0,0,1-.618-.354q-.426-.354-.426-.456T4.38-3.42ZM19-5.22a11.521,11.521,0,0,0,1.842,3.972Q22.068.408,22.632.408q.18,0,.306-.306A6.969,6.969,0,0,0,23.2-.72q.138-.516.2-.516t.054.258q-.012.258-.012.45A9.3,9.3,0,0,0,23.526.786q.078.534.078.618,0,.3-.252.3a2.858,2.858,0,0,1-1-.408,5.257,5.257,0,0,1-1.536-1.41A10.842,10.842,0,0,1,19.4-2.592a24.1,24.1,0,0,1-.924-2.5,13.561,13.561,0,0,1-2.892.564A1.587,1.587,0,0,1,15-4.62q-.24-.1-.24-.174t.324-.114a16.865,16.865,0,0,0,3.252-.816q-.288-1.38-.432-1.83a2.088,2.088,0,0,0-.342-.69.7.7,0,0,1-.2-.366q0-.126.174-.126a1.721,1.721,0,0,1,.5.108,2.819,2.819,0,0,1,.51.216q.186.108.186.246a1.506,1.506,0,0,1-.024.27,2.4,2.4,0,0,0-.024.4,9.578,9.578,0,0,0,.156,1.62,4.938,4.938,0,0,1,1.14-.288,1.6,1.6,0,0,1,.462.06q.2.06.2.18t-.354.282A10.287,10.287,0,0,1,19-5.22Zm1.26-2.988a2.052,2.052,0,0,1,.978.2.631.631,0,0,1,.378.576q0,.372-.276.372a.547.547,0,0,1-.27-.078q-.138-.078-.66-.444t-.552-.4a.092.092,0,0,1-.03-.066Q19.824-8.208,20.256-8.208Zm-3.3,7a11.2,11.2,0,0,1,1.764-.444q.156,0,.156.09t-.168.162Q16.656-.6,15.24.084a1.212,1.212,0,0,1-.5.156,1,1,0,0,1-.54-.3q-.348-.3-.348-.4t.078-.108q.078-.012.522-.012a9.429,9.429,0,0,0,2-.48q.036-1.44-.108-1.536a3.452,3.452,0,0,1-.708.108,1.185,1.185,0,0,1-.438-.078Q15-2.64,15-2.718t.21-.108a5.289,5.289,0,0,0,.732-.2q.522-.168.762-.264a2.173,2.173,0,0,1,.8-.24,1.149,1.149,0,0,1,.462.084q.192.084.192.192t-.462.282a5.334,5.334,0,0,1-.75.234.54.54,0,0,1,.12.336,1.573,1.573,0,0,1-.036.342A7.386,7.386,0,0,0,16.956-1.212ZM30.18-7.848Q31.7-6.312,32.532-5.616A7.812,7.812,0,0,0,34-4.6a12.158,12.158,0,0,0,1.752.666q.4.12.4.216,0,.036-.108.072a5.585,5.585,0,0,1-.8.078q-.7.042-1.038.042a1.617,1.617,0,0,1-.552-.078,1.441,1.441,0,0,1-.456-.306q-.246-.228-1.4-1.572T30.06-7.6a13.219,13.219,0,0,1-1.938,2.67,9.132,9.132,0,0,1-2.034,1.71,3.729,3.729,0,0,1-1.14.516q-.1,0-.1-.072t.156-.156a10.656,10.656,0,0,0,2.478-2.16A11.665,11.665,0,0,0,29.13-7.4a2.836,2.836,0,0,0,.414-1.266,1.041,1.041,0,0,1-.012-.144q0-.216.174-.216a1.4,1.4,0,0,1,.564.216q.39.216.39.4t-.24.276A.783.783,0,0,0,30.18-7.848Zm1.392,3.264q0,.1-.156.192a4.649,4.649,0,0,1-.984.276,6.812,6.812,0,0,1-1.41.18,1.863,1.863,0,0,1-.768-.1q-.186-.1-.186-.162,0-.1.216-.1a3.715,3.715,0,0,0,.69-.1,7.689,7.689,0,0,0,.8-.21,4,4,0,0,1,1.092-.252,1.224,1.224,0,0,1,.522.09Q31.572-4.68,31.572-4.584ZM29.064-2.208q-.816.108-1.122.168a2.921,2.921,0,0,1-.558.06,1.51,1.51,0,0,1-.57-.132q-.318-.132-.318-.222t.354-.09q.354,0,2.046-.234t2.394-.408a4.854,4.854,0,0,1,.978-.174A1.811,1.811,0,0,1,32.9-3.1q.36.138.36.282,0,.228-.936.264T29.3-2.244q.708.3.708.54,0,.12-.234.222A16.325,16.325,0,0,0,27.972.024q1.164-.168,3.4-.384-.36-.6-.474-.768a.551.551,0,0,1-.114-.234q0-.066.06-.066a2.451,2.451,0,0,1,.822.438,3.916,3.916,0,0,1,.948.828A1.446,1.446,0,0,1,32.9.732q0,.5-.276.5a.339.339,0,0,1-.252-.138q-.12-.138-.84-1.218a21.739,21.739,0,0,0-2.424.492,5.69,5.69,0,0,0-1.368.5,1.226,1.226,0,0,1-.5.228q-.138,0-.246-.348a2,2,0,0,1-.108-.468A.235.235,0,0,1,27,.09a2.336,2.336,0,0,1,.552-.21,3.355,3.355,0,0,0,.87-.828A2.169,2.169,0,0,0,29.076-2.1.446.446,0,0,0,29.064-2.208Zm10.62-6.1a2.943,2.943,0,0,1,1.038.186.736.736,0,0,1,.5.762q0,.432-.288.432T40.05-7.5q-.594-.576-.594-.69T39.684-8.3ZM44.472-.948q.9-.144,1.362-.24a4.531,4.531,0,0,1,.924-.1,1.272,1.272,0,0,1,.762.216q.3.216.3.4,0,.264-.528.264a3.771,3.771,0,0,1-.462-.048A7.993,7.993,0,0,0,45.792-.5a14.008,14.008,0,0,0-3.468.4,2.211,2.211,0,0,1-.534.072A1.2,1.2,0,0,1,41.238-.2q-.306-.162-.306-.258t.252-.108a22.892,22.892,0,0,0,2.712-.3l.072-2.772a7.258,7.258,0,0,1-1,.084,1.328,1.328,0,0,1-.612-.108q-.2-.108-.2-.186t.2-.1a14.8,14.8,0,0,0,1.62-.312Q44-5,44-5.718a9.6,9.6,0,0,0-.072-1.254,2.466,2.466,0,0,0-.336-.972.343.343,0,0,1-.06-.18q0-.168.228-.168a1.821,1.821,0,0,1,.714.252q.486.252.486.444a.192.192,0,0,1-.048.12,2.451,2.451,0,0,0-.2.954Q44.652-5.76,44.6-4.4q.264-.072.63-.186a2.291,2.291,0,0,1,.678-.114A.955.955,0,0,1,46.4-4.6q.18.108.18.24t-.216.21q-.216.078-1.788.414Zm-4.284-2.4q1.5.072,1.5.852a.223.223,0,0,1-.252.252.535.535,0,0,1-.372-.156,10.546,10.546,0,0,0-.816-.72,6.578,6.578,0,0,1,.06,1.08v.384l.024,1.7a3.957,3.957,0,0,1-.138,1.038q-.138.51-.306.51-.108,0-.24-.36a1.808,1.808,0,0,1-.132-.594,1.945,1.945,0,0,1,.036-.4,11.615,11.615,0,0,0,.276-2.724q0-.312-.012-.564a9.667,9.667,0,0,1-1.728,1.932,3.077,3.077,0,0,1-1.128.732.064.064,0,0,1-.072-.072q0-.072.18-.24a13.074,13.074,0,0,0,1.692-1.9,17.548,17.548,0,0,0,1.488-2.352q-.42.1-1.98.66a1.236,1.236,0,0,1-.414.072.788.788,0,0,1-.474-.216q-.264-.216-.264-.318t.3-.1a6.452,6.452,0,0,0,1.392-.168,5.125,5.125,0,0,0,1.068-.324,1.816,1.816,0,0,0,.54-.408.4.4,0,0,1,.294-.12,1.008,1.008,0,0,1,.492.216q.318.216.318.336t-.216.24a1.36,1.36,0,0,0-.414.384q-.2.264-.774,1.176Q40.14-3.468,40.188-3.348Zm16.776-4.98a2.83,2.83,0,0,1,.774.21,2.4,2.4,0,0,1,.9.546q.33.336.33.516a.314.314,0,0,1-.108.264.366.366,0,0,1-.228.084.553.553,0,0,1-.42-.276,3.69,3.69,0,0,0-1.236-1.032q-.18-.1-.18-.2T56.964-8.328Zm-3.276,2a.438.438,0,0,1-.09.24.283.283,0,0,1-.246.132q-.156,0-.486-.372a3.548,3.548,0,0,0-.768-.648,5.339,5.339,0,0,0-1.038-.492q-.216-.084-.216-.228t.2-.144a6.643,6.643,0,0,1,1.182.306,2.442,2.442,0,0,1,1.224.648A1.071,1.071,0,0,1,53.688-6.324Zm2.328-1.1a3.174,3.174,0,0,1,.978.42q.774.42.774.924a.387.387,0,0,1-.072.216.231.231,0,0,1-.2.108q-.132,0-.288-.228A4.382,4.382,0,0,0,56.052-7.14q-.156-.1-.156-.192T56.016-7.428Zm1.812,2.316a.275.275,0,0,1,.132.054.2.2,0,0,1,.084.18.761.761,0,0,1-.108.33,13.2,13.2,0,0,1-1.008,1.38A16.951,16.951,0,0,1,55.3-1.38a18.948,18.948,0,0,1-1.962,1.6,16.832,16.832,0,0,1-1.71,1.116.614.614,0,0,1-.228.048q-.312,0-.6-.426a1.434,1.434,0,0,1-.288-.576q0-.15.132-.15a.8.8,0,0,1,.318.084A.9.9,0,0,0,51.33.4a1.412,1.412,0,0,0,.51-.138,8.631,8.631,0,0,0,1.128-.672A19.084,19.084,0,0,0,54.7-1.728a19.052,19.052,0,0,0,1.686-1.6A9,9,0,0,0,57.54-4.824Q57.72-5.112,57.828-5.112Zm-7.836.24a6.058,6.058,0,0,1,1.248.216,2.89,2.89,0,0,1,1.248.558.953.953,0,0,1,.372.678.333.333,0,0,1-.108.24.339.339,0,0,1-.246.108q-.138,0-.4-.252A5.47,5.47,0,0,0,49.98-4.488q-.264-.072-.264-.228T49.992-4.872Zm15.672-.444q.84-.216,1.836-.492t1.152-.336a1.544,1.544,0,0,0,.27-.132.416.416,0,0,1,.222-.072,1.24,1.24,0,0,1,.462.24q.354.24.354.384t-.336.276a1,1,0,0,0-.42.36q-.252.348-.8.984a9.078,9.078,0,0,1-.66.72.345.345,0,0,1-.21.084q-.1,0-.1-.1a.412.412,0,0,1,.1-.228q.4-.54.774-1.122t.432-.7a.463.463,0,0,0,.054-.186q0-.072-.144-.072a8.04,8.04,0,0,0-.8.2l-2.064.588q1.14,4.188,1.3,4.548A1.759,1.759,0,0,1,67.2.156a.355.355,0,0,1-.066.234.237.237,0,0,1-.192.078q-.126,0-.324-.264a1.516,1.516,0,0,1-.258-.72,41.245,41.245,0,0,0-1.1-4.236,17.061,17.061,0,0,0-1.98.7,1.1,1.1,0,0,1-.45.1.7.7,0,0,1-.486-.264.731.731,0,0,1-.252-.42q0-.156.144-.156a.344.344,0,0,1,.192.1.43.43,0,0,0,.288.1,20.246,20.246,0,0,0,2.424-.588q-.216-.792-.378-1.32a2.584,2.584,0,0,0-.252-.642.662.662,0,0,0-.342-.186q-.264-.084-.264-.246t.276-.162a2.926,2.926,0,0,1,.468.06.859.859,0,0,1,.444.18,1.094,1.094,0,0,1,.186.558Q65.34-6.5,65.664-5.316Zm9.3-2.484a4.669,4.669,0,0,1,1.242.414,3.9,3.9,0,0,1,1.224.69.943.943,0,0,1,.246.648.457.457,0,0,1-.084.288.286.286,0,0,1-.24.108.336.336,0,0,1-.276-.192,4.851,4.851,0,0,0-2.04-1.572q-.276-.144-.276-.264T74.964-7.8ZM82.62-6.276A5.109,5.109,0,0,1,81.5-4.47,17.1,17.1,0,0,1,78.42-1.536a8.018,8.018,0,0,1-2.34,1.5q-.228,0-.606-.432T75.1-1.05q0-.15.12-.15a.479.479,0,0,1,.282.132.634.634,0,0,0,.414.132,1.334,1.334,0,0,0,.5-.1,8.949,8.949,0,0,0,1.122-.684,18.655,18.655,0,0,0,1.716-1.3,19.788,19.788,0,0,0,1.6-1.518A16.607,16.607,0,0,0,82.2-6.168q.18-.24.3-.24T82.62-6.276ZM93.912-8.9a3.05,3.05,0,0,1,.744.246,2.942,2.942,0,0,1,.882.51.713.713,0,0,1,.282.462.517.517,0,0,1-.09.318.255.255,0,0,1-.2.12q-.114,0-.288-.234a4.411,4.411,0,0,0-.606-.612,4.4,4.4,0,0,0-.648-.5q-.216-.12-.216-.216T93.912-8.9Zm-1.056.828a2.766,2.766,0,0,1,.792.27,2.248,2.248,0,0,1,.864.588.943.943,0,0,1,.252.48.378.378,0,0,1-.1.27.3.3,0,0,1-.222.108q-.12,0-.276-.264a3.208,3.208,0,0,0-.558-.642,2.662,2.662,0,0,0-.738-.522q-.168-.084-.168-.186T92.856-8.076ZM91.44-1.26q.312-1.56.528-2.958t.216-1.536a.224.224,0,0,0-.054-.18.366.366,0,0,0-.21-.042q-.516,0-2.376.156a21.465,21.465,0,0,0-2.592.324,2.464,2.464,0,0,1-.468.072.456.456,0,0,1-.27-.09,1.494,1.494,0,0,1-.288-.3q-.162-.21-.252-.33a.386.386,0,0,1-.09-.228q0-.132.114-.132a.356.356,0,0,1,.234.108,1.2,1.2,0,0,0,.816.252q.528,0,2.286-.132t2.436-.2a4.094,4.094,0,0,0,.87-.15.9.9,0,0,1,.324-.078q.132,0,.384.294t.252.408a.325.325,0,0,1-.144.234.945.945,0,0,0-.246.444q-.1.324-.336,1.428t-.5,2.664a.908.908,0,0,1,.474.144q.2.132.2.252,0,.216-.42.216A1.631,1.631,0,0,1,92-.66,2.877,2.877,0,0,0,91.464-.7q-1.236,0-2.748.12a10.9,10.9,0,0,0-2.16.324,1.679,1.679,0,0,1-.408.072.7.7,0,0,1-.582-.4,1.4,1.4,0,0,1-.246-.552q0-.15.1-.15a.5.5,0,0,1,.27.15.862.862,0,0,0,.3.186,1.18,1.18,0,0,0,.318.036q.192,0,.564-.036Q89.472-1.212,91.44-1.26Zm14.268-5.2a.357.357,0,0,1-.168.264,1.522,1.522,0,0,0-.348.456,28.051,28.051,0,0,1-1.4,2.628A12.181,12.181,0,0,1,102.12-1.1,9.72,9.72,0,0,1,99.912.528,3.445,3.445,0,0,1,98.724,1q-.108,0-.108-.06,0-.132.312-.324a13.3,13.3,0,0,0,2.988-2.4A12.092,12.092,0,0,0,103.9-4.632a7.407,7.407,0,0,0,.726-1.752q0-.18-.3-.18-.528,0-2.766.228a17.163,17.163,0,0,0-2.754.408,1.1,1.1,0,0,1-.312.06q-.288,0-.6-.486A1.717,1.717,0,0,1,97.584-7q0-.156.12-.156a.368.368,0,0,1,.258.168.816.816,0,0,0,.336.246,1.37,1.37,0,0,0,.5.078q.048,0,1.752-.15T103.032-7q.78-.036,1.188-.09a2.962,2.962,0,0,0,.552-.108A.7.7,0,0,1,105-7.248q.168,0,.438.318A.924.924,0,0,1,105.708-6.456Zm8.28,2.016a11.32,11.32,0,0,1-1.848,1.7,3.855,3.855,0,0,1-1.512.87q-.108,0-.108-.09t.264-.27A13.724,13.724,0,0,0,112.4-3.6a13.2,13.2,0,0,0,1.734-2.034q.768-1.11.888-1.332a.846.846,0,0,0,.12-.39.363.363,0,0,0-.168-.294q-.168-.126-.168-.216a.176.176,0,0,1,.09-.15.439.439,0,0,1,.246-.06q.156,0,.5.318a.857.857,0,0,1,.342.558.546.546,0,0,1-.162.4,3.964,3.964,0,0,0-.444.6q-.282.438-1.074,1.41.54.24.54.564a.423.423,0,0,1-.036.168,16.89,16.89,0,0,0-.12,3L114.7.24a.719.719,0,0,1-.1.426.3.3,0,0,1-.246.138q-.144,0-.264-.264a1.23,1.23,0,0,1-.12-.51,2.814,2.814,0,0,1,.042-.486,9.312,9.312,0,0,0,.054-1.1l.048-2.256A1.352,1.352,0,0,0,113.988-4.44ZM131.616-5a5.134,5.134,0,0,1-.966,1.6,11.443,11.443,0,0,1-2.328,2.346,5.381,5.381,0,0,1-1.65,1.032q-.156,0-.378-.294a.908.908,0,0,1-.222-.42,2.125,2.125,0,0,1,.012-.234,8.436,8.436,0,0,0,.048-1.086q0-.762.024-2.754l.012-1.668a1.044,1.044,0,0,0-.09-.522,1.092,1.092,0,0,0-.318-.288q-.228-.15-.228-.276t.2-.126a1.913,1.913,0,0,1,.714.27q.51.27.51.57a.521.521,0,0,1-.036.162,2.752,2.752,0,0,0-.084.36q-.048.258-.09,2.394t-.042,2.55q0,.414.216.414a4.877,4.877,0,0,0,1.59-.966,13.568,13.568,0,0,0,2.754-3.042q.12-.168.234-.168T131.616-5ZM124.5-6.648a.42.42,0,0,1-.024.132,2.92,2.92,0,0,0-.12.828,11.5,11.5,0,0,1-.432,3.384,4.766,4.766,0,0,1-1.338,1.992q-.942.852-1.17.852-.1,0-.1-.084t.144-.2a5.782,5.782,0,0,0,1.806-2.3,11.164,11.164,0,0,0,.474-3.792,6.028,6.028,0,0,0-.024-.7.7.7,0,0,0-.126-.3.786.786,0,0,0-.264-.234q-.162-.09-.162-.2,0-.144.2-.144a1.708,1.708,0,0,1,.666.246Q124.5-6.924,124.5-6.648Zm16.476,4.74a7.476,7.476,0,0,0-1.344-1.74q-.156-.156-.156-.24a.074.074,0,0,1,.084-.084.948.948,0,0,1,.36.2,6.477,6.477,0,0,1,.762.7A11.3,11.3,0,0,1,141.6-2.01a5.918,5.918,0,0,1,.6.918,1.521,1.521,0,0,1,.168.66.763.763,0,0,1-.114.462.316.316,0,0,1-.246.15q-.228,0-.4-.594a6.885,6.885,0,0,0-.45-1.146q-2.5.576-4.446,1.08t-2.178.6a1.009,1.009,0,0,1-.366.1q-.138,0-.282-.336a1.538,1.538,0,0,1-.144-.438q0-.1.186-.1t.474.006a6.991,6.991,0,0,0,.924-.1q.648-1.272,1.434-3.042t.984-2.37a3.212,3.212,0,0,0,.2-.846.8.8,0,0,0-.252-.522.316.316,0,0,1-.108-.222q0-.114.192-.114t.636.4q.444.4.444.6a.446.446,0,0,1-.126.33,3.962,3.962,0,0,0-.45.822q-.324.7-1.116,2.256t-1.4,2.64Q139.224-1.488,140.976-1.908Z" transform="translate(948 1910)"/><path d="M10.476-6.624a14.546,14.546,0,0,0,1.629,3.879A11.342,11.342,0,0,0,13.869-.531q.819.747,1.116.747t.5-.387a9.615,9.615,0,0,0,.549-1.593q.144-.522.252-.522t.108.36q0,1.674.045,2.5t.045.9a.529.529,0,0,1-.6.594A4.243,4.243,0,0,1,13.869.909a10.773,10.773,0,0,1-2.412-2.835A17.256,17.256,0,0,1,9.738-6.354L8.55-5.922A5.408,5.408,0,0,1,7.1-5.544a2.477,2.477,0,0,1-.648-.072q-.261-.072-.261-.234T6.714-6.1A22.228,22.228,0,0,0,9.54-7.11l-.648-3.1a18.149,18.149,0,0,0-.441-1.809,2,2,0,0,0-.351-.621.723.723,0,0,1-.216-.423q0-.171.279-.171a3.562,3.562,0,0,1,1.017.279q.738.279.738.6a1.145,1.145,0,0,1-.072.306,3.4,3.4,0,0,0-.072.882,16.3,16.3,0,0,0,.5,3.744q.954-.414,1.485-.684a5.935,5.935,0,0,1,.846-.369,2.01,2.01,0,0,1,.6-.1,3.9,3.9,0,0,1,.711.081q.423.081.423.279,0,.324-1.062.666Zm-5.9-.648A12.134,12.134,0,0,1,2.061-4.383a4.018,4.018,0,0,1-1.359.8q-.126,0-.126-.108a.493.493,0,0,1,.18-.288A20.48,20.48,0,0,0,3.447-7.137,12.1,12.1,0,0,0,4.869-9.792a3.492,3.492,0,0,0,.3-1.548.916.916,0,0,1-.018-.18q0-.252.216-.252a1.941,1.941,0,0,1,.81.423q.594.423.594.693a.463.463,0,0,1-.189.315,5.932,5.932,0,0,0-.7,1.026q-.513.855-1.035,1.647a2.443,2.443,0,0,1,.639.738,1.563,1.563,0,0,1,.153.675q0,.351-.063,2.3T5.5-1.287A11.572,11.572,0,0,1,5.391.144a4.9,4.9,0,0,1-.18.918.885.885,0,0,1-.171.288.275.275,0,0,1-.2.09q-.216,0-.459-.675A3.351,3.351,0,0,1,4.14-.2a2.916,2.916,0,0,1,.189-.846,9.381,9.381,0,0,0,.315-1.9q.126-1.341.126-2.574A5.467,5.467,0,0,0,4.572-7.272Zm7.416-4.446a2.931,2.931,0,0,1,1.377.324,1.015,1.015,0,0,1,.621.936q0,.612-.4.612a1.327,1.327,0,0,1-.693-.333,7,7,0,0,1-.873-.792q-.432-.459-.432-.585Q11.592-11.718,11.988-11.718ZM28.44-3.33A20.855,20.855,0,0,0,31.9-1.287a18.453,18.453,0,0,0,3.42,1q.45.072.45.189t-.189.171q-.189.054-1.341.243A11.7,11.7,0,0,1,32.607.5,1.662,1.662,0,0,1,31.851.36a3.4,3.4,0,0,1-.675-.5q-2.61-2.394-5.22-4.536-.288.324-.738.756a1.088,1.088,0,0,1,.63,1.008,5.07,5.07,0,0,1-.072.7l-.144,2.5,1.926-1.08a3.941,3.941,0,0,1,.927-.432q.135,0,.135.09,0,.144-.6.621T26.586.711q-.828.747-1.215,1.161t-.6.414q-.216,0-.432-.4a1.569,1.569,0,0,1-.216-.72.531.531,0,0,1,.252-.477q.234-.126.414-1.062a9.575,9.575,0,0,0,.18-1.809,13.642,13.642,0,0,0-.054-1.377,12.756,12.756,0,0,1-3.24,2.493,5.73,5.73,0,0,1-2.088.711q-.18,0-.18-.09t.306-.234a13.261,13.261,0,0,0,2.4-1.548,18.414,18.414,0,0,0,2.142-1.881,11.021,11.021,0,0,0,.981-1.152,1.013,1.013,0,0,0,.216-.6q-2.2.432-2.547.531a2.514,2.514,0,0,1-.684.1,1.932,1.932,0,0,1-.7-.144q-.369-.144-.369-.279t.288-.153q.9-.054,4.914-.828l.036-1.3a13.85,13.85,0,0,1-1.593.216,1.763,1.763,0,0,1-.558-.081q-.243-.081-.243-.2t.333-.162q.333-.045,2.079-.423l.036-1.368a18.229,18.229,0,0,1-1.9.288,2.036,2.036,0,0,1-.612-.1q-.315-.1-.315-.2t.4-.153a24.9,24.9,0,0,0,2.448-.5,7.233,7.233,0,0,0-.054-1.431,1.7,1.7,0,0,0-.4-.873.476.476,0,0,1-.144-.306q0-.144.279-.144a3.554,3.554,0,0,1,.963.234q.684.234.684.54a.7.7,0,0,1-.054.234,6.085,6.085,0,0,0-.324,1.512l1.278-.324a3.317,3.317,0,0,1,.9-.2,1.925,1.925,0,0,1,.594.1q.306.1.306.27t-.288.279q-.288.108-2.844.576L27.288-8.8a12.748,12.748,0,0,1,2.052-.45q.666,0,.666.252,0,.144-.3.279a22.851,22.851,0,0,1-2.457.6l-.09,1.35q2.07-.378,2.916-.54a7.438,7.438,0,0,1,1.278-.162,1.44,1.44,0,0,1,.729.171q.3.171.3.3,0,.216-.648.27-3.06.288-5.778.756.63.5.63.675t-.306.351q.7.558,1.818,1.368a4.894,4.894,0,0,0,1.4-1.89.638.638,0,0,1,.117-.306.371.371,0,0,1,.234-.054,3.025,3.025,0,0,1,.756.216q.585.216.585.387T30.96-5a5.464,5.464,0,0,0-.945.6Q29.34-3.906,28.44-3.33Zm11.376-7.128a2.668,2.668,0,0,1-.756-.117q-.4-.117-.4-.279t.36-.18a17.81,17.81,0,0,0,2.367-.351q1.593-.315,2.943-.693a3.15,3.15,0,0,1,.864-.108,2.085,2.085,0,0,1,.837.153q.351.153.351.333t-.369.288q-.369.108-2.673.486a4.9,4.9,0,0,1,.792.468.539.539,0,0,1,.252.4,1.544,1.544,0,0,1-.126.531,5.308,5.308,0,0,0-.162,1.4l-.036,4.212a5.727,5.727,0,0,1,1.323-.432q.243,0,.243.108,0,.252-1.566.936L44.1-.27q0,.576-.081,1.458A3.685,3.685,0,0,1,43.812,2.3a.376.376,0,0,1-.333.234q-.207,0-.423-.513a2.345,2.345,0,0,1-.216-.882,2.9,2.9,0,0,1,.108-.765,20.5,20.5,0,0,0,.306-3.312q-2.934,1.332-4.212,2a1.327,1.327,0,0,1-.585.216,1.258,1.258,0,0,1-.639-.369q-.432-.369-.432-.576t.5-.207A8.308,8.308,0,0,0,40.1-2.394q.072-3.582.072-4.977t-.063-2.034A2.665,2.665,0,0,0,39.816-10.458Zm3.456,6.876q.018-1.08.018-3.528t-.054-2.943a1.829,1.829,0,0,0-.252-.8q-1.98.342-2.7.378a4.634,4.634,0,0,1,.639.459.518.518,0,0,1,.207.36,1.407,1.407,0,0,1-.054.369,8.117,8.117,0,0,0-.054,1.3A4.415,4.415,0,0,1,42.3-8.478a.925.925,0,0,1,.45.1.306.306,0,0,1,.18.279q0,.18-.459.306a3.085,3.085,0,0,1-.8.126,5.552,5.552,0,0,1-.648-.036l-.09,2.268a6.109,6.109,0,0,1,1.4-.468.647.647,0,0,1,.4.108.342.342,0,0,1,.144.288q0,.18-.369.324a2,2,0,0,1-.729.144,3.04,3.04,0,0,1-.846-.144L40.86-2.646Zm5.652-.648a8.55,8.55,0,0,0,1.791,1.683A10.712,10.712,0,0,0,54.09-1.224q.252.072.252.234a.183.183,0,0,1-.09.153,5.819,5.819,0,0,1-1.188.153q-1.1.09-1.674.09a1.76,1.76,0,0,1-.828-.144,3.12,3.12,0,0,1-.72-.756q-.468-.612-1.35-1.944A5.237,5.237,0,0,1,46.4-1.53,4.872,4.872,0,0,1,44.6-.936q-.162,0-.162-.117t.306-.243a6.5,6.5,0,0,0,3.186-2.916Q47-5.706,46.611-6.192a5.858,5.858,0,0,0-1.053-.99q-.234-.18-.234-.324t.252-.144a1.805,1.805,0,0,1,.756.279,2.448,2.448,0,0,1,.846.783q.342.5,1.116,1.53a14.328,14.328,0,0,0,.594-2.124,11.444,11.444,0,0,0,.234-1.377q0-.225-.432-.225a6.659,6.659,0,0,0-1.53.315,6.828,6.828,0,0,1-1.458.315,1.615,1.615,0,0,1-.549-.072q-.189-.072-.189-.207t.54-.234A17.99,17.99,0,0,0,47.3-9.153a5.811,5.811,0,0,0,1.629-.684,1.2,1.2,0,0,1,.738-.3,1.865,1.865,0,0,1,.918.351q.558.351.558.531a.578.578,0,0,1-.252.4,2.207,2.207,0,0,0-.684,1.1A26.734,26.734,0,0,1,48.924-4.23Zm15.282-8.91a4.077,4.077,0,0,1,.891.162,1.833,1.833,0,0,1,.828.378.823.823,0,0,1,.207.594q0,.684-.378.684a.358.358,0,0,1-.207-.09q-.117-.09-.765-.7t-.747-.72a.315.315,0,0,1-.1-.207Q63.936-13.14,64.206-13.14Zm-4.716,7.9a2.74,2.74,0,0,1-.27-.882.127.127,0,0,1,.144-.144,1.846,1.846,0,0,1,.648.324,1.015,1.015,0,0,1,.5.9,1.4,1.4,0,0,1-.1.495q-.1.261-.27.261T59.67-4.9q-1.188.522-1.647.756a2.681,2.681,0,0,0-.657.432.654.654,0,0,1-.4.216q-.162,0-.5-.432a1.293,1.293,0,0,1-.333-.657q0-.225.3-.315a1.858,1.858,0,0,0,.711-.522q.414-.432,1.458-1.8a6.927,6.927,0,0,0-1.278.171,3.78,3.78,0,0,0-.774.3,1.3,1.3,0,0,1-.468.18q-.234,0-.36-.315a1.548,1.548,0,0,1-.126-.567.439.439,0,0,1,.27-.4,4.58,4.58,0,0,0,1.7-1.872,5.278,5.278,0,0,0,.837-1.926.635.635,0,0,0-.054-.252.75.75,0,0,1-.054-.3q0-.171.234-.171a1.444,1.444,0,0,1,.729.423q.495.423.5.639a.58.58,0,0,1-.288.432A30.045,30.045,0,0,0,56.826-7.7q.486.018,1.044.018t1.1-.036q.54-.7.783-1.089a3.125,3.125,0,0,0,.3-.549,1.4,1.4,0,0,0,.054-.432q0-.45.243-.45t.63.432a1.234,1.234,0,0,1,.387.648.536.536,0,0,1-.288.414,10.135,10.135,0,0,0-1.341,1.215q-.765.8-2.421,2.835Zm3.492,1.062a7.389,7.389,0,0,0,1.746-.27,5.129,5.129,0,0,0-.252-1.926,12.032,12.032,0,0,1-2.322.36q-.5,2.142-.972,2.142-.2,0-.306-.315a1.769,1.769,0,0,1-.108-.567.863.863,0,0,1,.18-.5,3.122,3.122,0,0,0,.594-1.494q.018-.324.135-.324t.459.54a27.7,27.7,0,0,0,3.33-.612,7.447,7.447,0,0,0,.468-2.142,2.326,2.326,0,0,0-.054-.522q-2.268.378-2.7.378a2.738,2.738,0,0,1-.747-.09q-.315-.09-.315-.207t.45-.171a18.86,18.86,0,0,0,3.24-.693,7.917,7.917,0,0,1,1.764-.441,1.233,1.233,0,0,1,.648.153q.252.153.252.288t-.279.243a14.914,14.914,0,0,1-1.647.378q.666.468.666.675a.578.578,0,0,1-.2.4,8.968,8.968,0,0,0-.954,1.62,21.271,21.271,0,0,0,2.547-.639,1.715,1.715,0,0,1,.675-.171,2.655,2.655,0,0,1,1.08.531q.792.531.792.819,0,.216-.441.3a3.2,3.2,0,0,0-.855.288q-.414.207-1.152.639a.465.465,0,0,1-.225.072q-.1,0-.1-.09a.448.448,0,0,1,.054-.2A4.1,4.1,0,0,0,69.03-6.9q0-.207-.27-.207a21.905,21.905,0,0,0-3.51.576q.486.324.486.495a1.839,1.839,0,0,1-.054.4,5.417,5.417,0,0,0-.054.972,5.248,5.248,0,0,0,1.314-.468,1.211,1.211,0,0,1,.558-.162,1.825,1.825,0,0,1,.783.315q.531.315.531.513a.516.516,0,0,1-.153.288,1.35,1.35,0,0,0-.153.792l.072,1.476a2.2,2.2,0,0,1-.36,1.233q-.36.549-.594.549-.162,0-.288-.252A2.262,2.262,0,0,0,67-.864a2.861,2.861,0,0,0-.558-.468Q66.1-1.566,66.1-1.71t.2-.144a1.968,1.968,0,0,1,.333.063,2.218,2.218,0,0,0,.522.063q.261,0,.333-.162a1.959,1.959,0,0,0,.072-.666q0-.5-.045-1a3.17,3.17,0,0,0-.09-.612q-.045-.117-.27-.117a4.857,4.857,0,0,0-.711.081q-.486.081-.81.117Q65.664.5,65.6,1.17a7.927,7.927,0,0,1-.234,1.305q-.171.639-.288.639t-.2-.3a4.608,4.608,0,0,1-.117-.864q-.036-.567-.036-5.859a7.82,7.82,0,0,1-1.512.288Q63.108-.36,62.622-.36q-.162,0-.378-.369a1.3,1.3,0,0,1-.216-.612,1.885,1.885,0,0,1,.153-.639,2.921,2.921,0,0,0,.153-1.035,4.378,4.378,0,0,0-.063-.9,1.843,1.843,0,0,1-.063-.369q0-.108.144-.108A2.181,2.181,0,0,1,62.982-4.176Zm.252-4.914a1.48,1.48,0,0,1,.675.306.934.934,0,0,1,.459.81,1.671,1.671,0,0,1-.081.5q-.081.261-.27.261a.407.407,0,0,1-.333-.207,4.608,4.608,0,0,1-.378-.774,2.711,2.711,0,0,1-.234-.729A.143.143,0,0,1,63.234-9.09ZM60.876-2.574q0,.63-.36.63A.464.464,0,0,1,60.21-2.1a3.241,3.241,0,0,1-.468-.756,2.821,2.821,0,0,1-.306-.729q0-.126.18-.126a1.952,1.952,0,0,1,.72.324A.941.941,0,0,1,60.876-2.574ZM58.7-1.8a1.622,1.622,0,0,1-.1.522q-.1.288-.261.288a.352.352,0,0,1-.288-.2,5.323,5.323,0,0,1-.369-.9,4.207,4.207,0,0,1-.243-.855q0-.153.09-.153a2.419,2.419,0,0,1,.63.432A1.171,1.171,0,0,1,58.7-1.8ZM56.988-.486a1.011,1.011,0,0,1-.162.558q-.162.252-.306.252a.361.361,0,0,1-.261-.117,2.742,2.742,0,0,1-.351-.738,8.126,8.126,0,0,1-.342-1.116,3.983,3.983,0,0,1-.108-.648q0-.153.09-.153.18,0,.81.666A1.934,1.934,0,0,1,56.988-.486Zm22.3-10.872q0,.18-.4.5a8.921,8.921,0,0,0-1.107,1.125,11.251,11.251,0,0,1-1.71,1.575,3.479,3.479,0,0,1-1.3.765q-.072,0-.072-.054,0-.108.441-.54t.918-1A12.155,12.155,0,0,0,76.833-10q.3-.441.477-.747a3.776,3.776,0,0,0,.261-.513,1,1,0,0,0,.081-.351v-.27q0-.432.252-.432a1.862,1.862,0,0,1,.819.369Q79.29-11.574,79.29-11.358Zm2.61.45a3.124,3.124,0,0,0,1.818-.738q.4-.522.639-.522a2.087,2.087,0,0,1,.828.333q.585.333.585.522t-.405.486a1.35,1.35,0,0,0-.522.837,5.343,5.343,0,0,0-.117,1.134q0,.936.72.936a4.412,4.412,0,0,0,.72-.126,4.258,4.258,0,0,1,.882-.126,1.4,1.4,0,0,1,.711.234q.387.234.387.378,0,.2-.612.369a5.7,5.7,0,0,1-1.512.171,3.588,3.588,0,0,1-1.359-.2,1.169,1.169,0,0,1-.63-.558,3.045,3.045,0,0,1-.171-1.206,9.776,9.776,0,0,1,.045-1.161,3.7,3.7,0,0,0,.045-.486q0-.171-.126-.171a1.257,1.257,0,0,0-.378.09,3.86,3.86,0,0,1-1.332.18q.036.432.036.828a5.833,5.833,0,0,1-.4,2.286,3.447,3.447,0,0,1-1.1,1.467,2.278,2.278,0,0,1-.927.513q-.09,0-.09-.072,0-.2.522-.72A3.674,3.674,0,0,0,81.216-8.91a2.923,2.923,0,0,0-.3-1.6,1.2,1.2,0,0,1-.3-.594q0-.144.252-.144A3.407,3.407,0,0,1,81.9-10.908ZM76.86-4.662a14.354,14.354,0,0,1-2.34,2.484,4.735,4.735,0,0,1-1.638,1.1q-.09,0-.09-.117t.324-.441q1.566-1.584,2.169-2.313a19.012,19.012,0,0,0,1.359-1.926,13.364,13.364,0,0,0,.936-1.638,2.079,2.079,0,0,0,.18-.765q0-.45.225-.45a1.426,1.426,0,0,1,.7.378q.477.378.477.567a.522.522,0,0,1-.216.378,7.306,7.306,0,0,0-.738.864q-.522.675-.972,1.341a2.086,2.086,0,0,1,.522,1.188,8.716,8.716,0,0,1-.054.981,15.1,15.1,0,0,0-.054,1.521l.036,1.26a4.42,4.42,0,0,1-.216,1.494q-.216.594-.45.594t-.4-.378a2.353,2.353,0,0,1-.162-.927A4.111,4.111,0,0,1,76.59-.5a12.41,12.41,0,0,0,.342-3.042A7.025,7.025,0,0,0,76.86-4.662Zm6.912,3.1A11.062,11.062,0,0,0,86.256.081a14.8,14.8,0,0,0,2.952.855q.648.126.648.27,0,.09-.216.153t-1.287.207A13.7,13.7,0,0,1,86.6,1.71a1.9,1.9,0,0,1-1.143-.333A22.017,22.017,0,0,1,83.25-.954a7.838,7.838,0,0,1-2.34,1.4A6.389,6.389,0,0,1,78.75.99q-.36,0-.36-.162T78.876.5a9.809,9.809,0,0,0,3.78-2.142,19.864,19.864,0,0,0-1.341-1.521,3.573,3.573,0,0,0-.828-.612q-.4-.207-.4-.342t.3-.135a1.608,1.608,0,0,1,.666.171,1.971,1.971,0,0,1,.621.441q.7.756,1.44,1.458a4.981,4.981,0,0,0,.639-1.5,5.88,5.88,0,0,0,.225-1.188q0-.315-.189-.315a4.031,4.031,0,0,0-.846.2q-.657.2-.864.27a1.577,1.577,0,0,1-.513.072,1.529,1.529,0,0,1-.639-.153q-.333-.153-.333-.243,0-.162.639-.225A8.666,8.666,0,0,0,82.53-5.5a4.839,4.839,0,0,0,1.053-.378,1.451,1.451,0,0,1,.648-.207,2.367,2.367,0,0,1,.873.306q.612.306.612.5a.531.531,0,0,1-.27.4A3.259,3.259,0,0,0,84.8-3.537,6.454,6.454,0,0,1,83.772-1.566Z" transform="translate(948 1938)"/><path d="M15.022-13.137a61.357,61.357,0,0,0,6.148-1.189,4.035,4.035,0,0,1,.9-.174,4.371,4.371,0,0,1,2.03.986q1.392.986,1.392,1.247a.717.717,0,0,1-.3.522,3.533,3.533,0,0,0-.595.682,4.205,4.205,0,0,0-.478.928,8.046,8.046,0,0,0-.334,1.61l-.29,2.378Q23.171-3.683,23-2.494a15.947,15.947,0,0,1-.551,2.407,8.5,8.5,0,0,1-.914,2.059,4.743,4.743,0,0,1-.87,1.1,1.014,1.014,0,0,1-.478.261q-.435,0-.551-1.189-.319-3.364-1.508-3.364-.957,0-3.2.217t-2.944.363a14.9,14.9,0,0,1-3.422.261q.087,1.914-.435,1.914-.783,0-1.1-4.118a56.307,56.307,0,0,0-.74-5.858,8.576,8.576,0,0,0-.986-3.292,1.407,1.407,0,0,1-.478-.827q0-.319.58-.319a5.311,5.311,0,0,1,1.711.435,46.833,46.833,0,0,0,6.293-.464q.087-5.771-.841-7.076a1.277,1.277,0,0,1-.29-.7q0-.406.566-.406a5.6,5.6,0,0,1,1.8.493q1.232.493,1.233,1.044a2.494,2.494,0,0,1-.174.7Q15.225-17.864,15.022-13.137Zm-.406,11.02a17.2,17.2,0,0,1,2.871-.348,2.4,2.4,0,0,1,1.682.638q.7.638.957.638.725,0,1.305-3.625a37.738,37.738,0,0,0,.58-5.38,10.236,10.236,0,0,0-.116-2.1.7.7,0,0,0-.45-.464,3.367,3.367,0,0,0-1.029-.116,41.349,41.349,0,0,0-5.423.609L14.819-8a8.466,8.466,0,0,1,2.248-.406,2.918,2.918,0,0,1,1.305.232q.449.232.449.522,0,.493-1.276.768t-2.755.449ZM13.4-12.035a52.167,52.167,0,0,1-5.887.551q.638,4.93,1.015,10.3l4.64-.667.087-4.437q-1.131.116-1.8.116a2.1,2.1,0,0,1-1.116-.275q-.45-.275-.45-.435t.58-.247q1.363-.2,2.813-.522ZM43.906-.2q7.714-.986,8.352-.986a5.05,5.05,0,0,1,2.6.653Q55.97.116,55.97.638q0,.667-1.566.667a10.01,10.01,0,0,1-1.566-.145A38.251,38.251,0,0,0,47.023.841a54.5,54.5,0,0,0-7.83.566q-3.9.566-4.509.769a3.832,3.832,0,0,1-1.218.2,2.128,2.128,0,0,1-1.291-.536q-.681-.537-.681-.8t.551-.261l.667.029q1.827,0,9.86-.87l.116-3.161q-2.639.348-3.378.348a3.359,3.359,0,0,1-1.189-.174q-.449-.174-.449-.406t.725-.334q.725-.1,4.321-.856l.116-3.683a30.077,30.077,0,0,1-3.306.348q0,.609-.58.609-.319,0-.652-.754A4.465,4.465,0,0,1,37.932-9.8a16.924,16.924,0,0,0-.667-4.045,6.168,6.168,0,0,0-1.073-2.335q-.522-.522-.522-.812t.58-.29a7.64,7.64,0,0,1,1.6.232q2.755-.145,5.916-.58a36.839,36.839,0,0,0,4.219-.74,6.377,6.377,0,0,1,1.6-.3,4.735,4.735,0,0,1,1.885.8q1.348.8,1.348,1.16t-.725.971a2.785,2.785,0,0,0-.479.682,4.468,4.468,0,0,0-.391.826Q49.851-10.382,49.532-9.7a8.03,8.03,0,0,1-.783,1.319q-.464.638-.7.638-.435,0-.667-.58-.087-.261-.725-.261t-2.494.116L44.051-4.93a21.539,21.539,0,0,1,3-.58,3.4,3.4,0,0,1,1.146.232q.638.232.638.522T48-4.161a26.02,26.02,0,0,1-4,.739Zm.29-9.135q.348-.058.464-.087a4.1,4.1,0,0,1,1.1-.145,1.654,1.654,0,0,1,1.059.217.594.594,0,0,0,.362.217q.377,0,.725-1.1t.739-2.987a15.272,15.272,0,0,0,.392-2.741q0-.856-.232-1.044a2.525,2.525,0,0,0-1.276-.189,33.116,33.116,0,0,0-4.06.464,4.19,4.19,0,0,1,.783.478.594.594,0,0,1,.261.435,2.971,2.971,0,0,1-.029.421q-.058.348-.174,1.943a6.332,6.332,0,0,1,1.479-.319,2.385,2.385,0,0,1,.9.2q.493.2.493.435t-.3.348q-.3.116-2.6.609Zm-1.276-2.61a15.365,15.365,0,0,1-1.667.16,1.473,1.473,0,0,1-.914-.2q-.29-.217-.29-.363t.638-.261l2.233-.435a7.158,7.158,0,0,0-.609-3.538,28.426,28.426,0,0,1-3.886.377q.58,3.335,1.044,7.453,3.364-.319,3.364-.377.029-.145.058-1.479Zm64.351,8.236a11.7,11.7,0,0,0,3.118,2.958A23.9,23.9,0,0,0,115.1,1.189q.638.174.638.435,0,.145-.217.217a14.139,14.139,0,0,1-1.74.2q-1.522.131-2.422.131a2.85,2.85,0,0,1-1.407-.29A4.667,4.667,0,0,1,108.75.7q-.7-.9-2.262-3.277a9.266,9.266,0,0,1-2.9,2.32A6.444,6.444,0,0,1,100.8.58q-.406,0-.406-.16t.493-.392a13.439,13.439,0,0,0,4.93-3.712q-.986-1.595-1.45-2.494a6.648,6.648,0,0,0-.986-1.464,3.262,3.262,0,0,0-.855-.725q-.334-.159-.334-.334,0-.29.363-.29a2.5,2.5,0,0,1,.9.217,1.61,1.61,0,0,1,.681.42L106.372-4.9a14.815,14.815,0,0,0,.783-4.93,7.5,7.5,0,0,0-.087-1.218,5.482,5.482,0,0,1-2.494-.319,7.454,7.454,0,0,1-1.044,1.16,2.322,2.322,0,0,1-.7.522q-.116,0-.116-.13a1.436,1.436,0,0,1,.2-.507q3.335-6.206,3.335-8.758a1.837,1.837,0,0,0-.087-.667.913.913,0,0,1-.087-.348.384.384,0,0,1,.435-.435,4.361,4.361,0,0,1,1.262.493q1,.493,1,1.015a1.468,1.468,0,0,1-.319.754,6.317,6.317,0,0,0-.754,1.189,33.516,33.516,0,0,1-2.871,5.365,14.408,14.408,0,0,0,3.813-1.03,10.553,10.553,0,0,1,2.712-.856,2.752,2.752,0,0,1,1.044.188q.464.189.464.45a.507.507,0,0,1-.275.435,9.694,9.694,0,0,1-1.755.58q-1.479.406-2.871.725,1.073.957,1.073,1.45a1.123,1.123,0,0,1-.145.464,19.035,19.035,0,0,0-.522,2.2A16.911,16.911,0,0,1,107.271-3.712Zm-6.728-11.716a3.543,3.543,0,0,0,.783-.247,1.658,1.658,0,0,1,.7-.159,2.548,2.548,0,0,1,1,.319q.653.319.653.638t-1.392.319q-.464,0-2.03.145a9.888,9.888,0,0,1-1.146,2.32q-.421.493-.565.493t-.145-.189a5.657,5.657,0,0,1,.261-1.044q.261-.855.377-1.436-1.624.2-2.9.435l.029.638q0,.783-.392.783t-.493-.609q-.1-.609-.1-.667a21.987,21.987,0,0,0-2.813.594,3.145,3.145,0,0,1-1.015.217,1.973,1.973,0,0,1-1.015-.406q-.609-.406-.609-.623t.638-.217a42.892,42.892,0,0,0,4.669-.406q-.319-1.566-.507-2.146a3.362,3.362,0,0,0-.493-.986,1.225,1.225,0,0,1-.3-.638q0-.232.363-.232a3.85,3.85,0,0,1,1.232.363q.87.363.87.913a1.126,1.126,0,0,1-.073.377,2.525,2.525,0,0,0-.072.74q0,.537.058,1.464,2.32-.348,3.19-.493a13.47,13.47,0,0,0,.377-2.755,3.817,3.817,0,0,0-.131-1.305,1.106,1.106,0,0,1-.131-.493q0-.232.377-.232a3.408,3.408,0,0,1,1.218.392q.841.392.841.884a.83.83,0,0,1-.145.435A17.226,17.226,0,0,0,100.543-15.428ZM94.917-9.077a9,9,0,0,0,2.16-.174,5.187,5.187,0,0,0,1.682-.507,1.505,1.505,0,0,1,.826-.276,2.514,2.514,0,0,1,1.174.493q.769.493.769.783a1.248,1.248,0,0,1-.333.711,7.736,7.736,0,0,0-.565,2.856,24.126,24.126,0,0,1-.769,5,4.244,4.244,0,0,1-1.407,2.132,3.064,3.064,0,0,1-1.232.7q-.3,0-.421-.58A6.781,6.781,0,0,0,96.135.116a1.314,1.314,0,0,1-.145-.464.128.128,0,0,1,.145-.145,2.29,2.29,0,0,1,.667.247A2.115,2.115,0,0,0,97.643,0q.812,0,1.276-2.552a27.7,27.7,0,0,0,.464-4.959,1.963,1.963,0,0,0-.145-.942q-.145-.218-.667-.218a10.428,10.428,0,0,0-1.363.116l-1.392.232A3.129,3.129,0,0,1,94.6-8.816q-.435.377-1.407,1.059a3.148,3.148,0,0,1-1.348.681q-.116,0-.116-.087,0-.174.464-.638a24.25,24.25,0,0,0,2.32-2.407,4.278,4.278,0,0,0,.7-1.392q.2-.725.435-.725a1.87,1.87,0,0,1,.812.406q.58.406.58.7a.534.534,0,0,1-.174.435,11.4,11.4,0,0,0-1.088.943A9.7,9.7,0,0,1,94.917-9.077Zm-2.929,3.1a5.932,5.932,0,0,0,2.9-.725,1.348,1.348,0,0,1,.682-.261,2.911,2.911,0,0,1,1.1.522q.827.522.826.769a.662.662,0,0,1-.334.493,2.531,2.531,0,0,0-.667.957,3.267,3.267,0,0,0-.333.885.7.7,0,0,0,.073.319.672.672,0,0,1,.072.3.481.481,0,0,1-.116.3,3.51,3.51,0,0,1-1.276.362,15.065,15.065,0,0,1-2.436.247,3.982,3.982,0,0,1-.16,1.044.344.344,0,0,1-.334.232q-.232,0-.406-.334a3.229,3.229,0,0,1-.217-1.2,13.088,13.088,0,0,0-.29-2.03,4.953,4.953,0,0,0-.493-1.523,1.155,1.155,0,0,1-.246-.536q0-.174.348-.174A4.791,4.791,0,0,1,91.988-5.974Zm.464,3.422q1.044-.174,1.493-.275a1.815,1.815,0,0,0,.609-.217,1.292,1.292,0,0,0,.333-.479,4.044,4.044,0,0,0,.29-.971,5.963,5.963,0,0,0,.116-.754q0-.464-.7-.464a6.629,6.629,0,0,0-.783.116,8.348,8.348,0,0,1-1.479.116Q92.394-3.335,92.452-2.552Zm45.385-14.3q0,.348-.536.7a20.277,20.277,0,0,1-4.51.972,42.99,42.99,0,0,1-5.307.623,4.548,4.548,0,0,1-2.059-.377q-.725-.377-.725-.58t.943-.3q.943-.1,3.32-.508t2.813-.522a25.6,25.6,0,0,1,4.031-.841,4.328,4.328,0,0,1,1.378.218Q137.837-17.255,137.837-16.849ZM133.98-10.5a4.441,4.441,0,0,1,1.87.391q.855.392.855.856,0,.551-1.015.551-.7,0-2.015.087t-3.292.377a22.249,22.249,0,0,1-2.8.29,3.826,3.826,0,0,1-1.6-.348q-.769-.348-.769-.536t.9-.3q1.479-.174,3.495-.551t2.827-.594A5.948,5.948,0,0,1,133.98-10.5Zm5.887,6.873a4.187,4.187,0,0,1,2.654.783q1,.783,1,1.363t-1.073.58a5.715,5.715,0,0,1-.928-.087,29.053,29.053,0,0,0-5.162-.493q-3.161,0-7.54.377a46.256,46.256,0,0,0-6.612.928,5.923,5.923,0,0,1-1.407.2,3.515,3.515,0,0,1-1.566-.536q-.972-.536-.971-.884,0-.145.217-.247a1.121,1.121,0,0,1,.565-.072h.638q.638,0,1.508-.058l8.671-.812q7.8-.783,8.512-.914A8.258,8.258,0,0,1,139.867-3.625Z" transform="translate(948 1982)"/></g></svg>