<svg xmlns="http://www.w3.org/2000/svg" width="42.265" height="53.723" viewBox="0 0 42.265 53.723"><g transform="translate(0.75 0.75)"><g transform="translate(0)"><path d="M1549.083,331.254a8.2,8.2,0,1,1-2.236-5.628" transform="translate(-1516.205 -323.052)" fill="none" stroke="#000" stroke-linecap="round" stroke-width="1.5"/><ellipse cx="3.554" cy="3.554" rx="3.554" ry="3.554" transform="translate(21.124 4.647)" fill="none" stroke="#000" stroke-linecap="round" stroke-width="1.5"/><ellipse cx="8.201" cy="8.201" rx="8.201" ry="8.201" transform="translate(0 0)" fill="none" stroke="#000" stroke-linecap="round" stroke-width="1.5"/><ellipse cx="3.554" cy="3.554" rx="3.554" ry="3.554" transform="translate(4.647 4.647)" fill="none" stroke="#000" stroke-linecap="round" stroke-width="1.5"/><path d="M1544.937,337.689h2.724a2.478,2.478,0,0,1,2.479,2.477v12.727a2.478,2.478,0,0,1-2.479,2.478H1524.72a2.478,2.478,0,0,1-2.477-2.478V340.166a2.477,2.477,0,0,1,2.477-2.477h14.962" transform="translate(-1519.752 -318.08)" fill="none" stroke="#000" stroke-linecap="round" stroke-width="1.5"/><path d="M1543.066,341.987l2.49-1.078,5.8-2.515a1.49,1.49,0,0,1,2.082,1.366V352.9a1.49,1.49,0,0,1-2.082,1.368l-8.3-3.594" transform="translate(-1512.678 -317.883)" fill="none" stroke="#000" stroke-width="1.5"/><g transform="translate(9.131 37.291)"><line y2="14.745" transform="translate(7.308)" fill="none" stroke="#000" stroke-linecap="round" stroke-width="1.5"/><line x1="4.496" y2="14.745" fill="none" stroke="#000" stroke-linecap="round" stroke-width="1.5"/><line x2="4.496" y2="14.745" transform="translate(10.121)" fill="none" stroke="#000" stroke-linecap="round" stroke-width="1.5"/></g></g></g></svg>