<svg xmlns="http://www.w3.org/2000/svg" width="48" height="51" viewBox="0 0 48 51"><g transform="translate(-253 -1896.555)"><g transform="translate(2)"><rect width="19" height="29" transform="translate(251 1918.555)"/><rect width="4" height="6" transform="translate(255 1925.555)" fill="#fff"/><rect width="4" height="6" transform="translate(262 1925.555)" fill="#fff"/><rect width="4" height="6" transform="translate(274 1905.555)"/><rect width="4" height="6" transform="translate(274 1915.555)"/><rect width="4" height="6" transform="translate(274 1925.555)"/><rect width="4" height="6" transform="translate(281 1905.555)"/><rect width="4" height="6" transform="translate(281 1915.555)"/><rect width="4" height="6" transform="translate(281 1925.555)"/><rect width="4" height="6" transform="translate(288 1905.555)"/><rect width="4" height="6" transform="translate(288 1915.555)"/><rect width="3" height="17" transform="translate(267 1896.555)"/><rect width="3" height="51" transform="translate(296 1896.555)"/><rect width="32" height="3" transform="translate(267 1896.555)"/><rect width="25" height="3" transform="translate(274 1944.555)"/></g></g></svg>