<svg xmlns="http://www.w3.org/2000/svg" width="50.272" height="52.503" viewBox="0 0 50.272 52.503"><g transform="translate(-784.806 -3526.435)"><path d="M5.96,3.057H36.312l9.96,13.178H-4Z" transform="translate(788.806 3562.702)"/><g transform="translate(793.46 3526.435)"><g transform="translate(-0.001)"><path d="M16.074,0A16.074,16.074,0,0,1,32.148,16.074c0,8.877-16.074,32.148-16.074,32.148S0,24.951,0,16.074A16.074,16.074,0,0,1,16.074,0Z" fill="#fff"/></g></g><g transform="translate(798.361 3533.787)"><g transform="translate(0)"><path d="M11.173,0A11.173,11.173,0,0,1,22.345,11.173c0,6.17-11.173,22.345-11.173,22.345S0,17.343,0,11.173A11.173,11.173,0,0,1,11.173,0Z"/><ellipse cx="5.31" cy="5.793" rx="5.31" ry="5.793" transform="translate(5.662 5.413)" fill="#fff"/></g></g></g></svg>