<svg xmlns="http://www.w3.org/2000/svg" width="46.473" height="43.792" viewBox="0 0 46.473 43.792"><g transform="translate(-246 -2089.555)"><line x2="22.343" y2="7.15" transform="translate(259.852 2094.868)" fill="none" stroke="#000" stroke-linecap="round" stroke-width="2"/><path d="M0,0,5.024,19.691" transform="translate(259.852 2094.868)" fill="none" stroke="#000" stroke-linecap="round" stroke-width="2"/><path d="M1.608-1.007-9.4,24.043" transform="translate(258.17 2095.869)" fill="none" stroke="#000" stroke-linecap="round" stroke-width="2"/><path d="M31.606,25.844,25.095,8.16" transform="translate(257.185 2094.001)" fill="none" stroke="#000" stroke-linecap="round" stroke-width="2"/><path d="M30.6,27.948,15.613,38.512" transform="translate(258.193 2091.897)" fill="none" stroke="#000" stroke-linecap="round" stroke-width="2"/><path d="M5.719,21.947l8.961,15.835" transform="translate(259.245 2092.535)" fill="none" stroke="#000" stroke-linecap="round" stroke-width="2"/><path d="M-9.438,27.047l24.8,10.031" transform="translate(258.175 2092.887)" fill="none" stroke="#000" stroke-linecap="round" stroke-width="2"/><path d="M-9.341,26.449,6.728,20.994" transform="translate(258.164 2093.53)" fill="none" stroke="#000" stroke-linecap="round" stroke-width="2"/><path d="M5.853,20.41,22.622,8.289" transform="translate(259.23 2093.987)" fill="none" stroke="#000" stroke-linecap="round" stroke-width="2"/><circle cx="3.575" cy="3.575" r="3.575" transform="translate(278.173 2098.492)"/><circle cx="4.469" cy="4.469" r="4.469" transform="translate(283.536 2114.578)"/><circle cx="3.575" cy="3.575" r="3.575" transform="translate(270.13 2126.197)"/><circle cx="2.681" cy="2.681" r="2.681" transform="translate(246 2117.26)"/><circle cx="6.256" cy="6.256" r="6.256" transform="translate(254.043 2089.555)"/><circle cx="4.469" cy="4.469" r="4.469" transform="translate(260.299 2110.11)"/></g></svg>