<svg xmlns="http://www.w3.org/2000/svg" width="48.334" height="48.334" viewBox="0 0 48.334 48.334"><g transform="translate(-300 -3537)"><g transform="translate(0 3)"><circle cx="10" cy="10" r="10" transform="translate(300 3534)"/><circle cx="10" cy="10" r="10" transform="translate(348.334 3562.334) rotate(90)"/><circle cx="7" cy="7" r="7" transform="translate(303 3537)" fill="#fff"/><circle cx="7" cy="7" r="7" transform="translate(345.334 3565.334) rotate(90)" fill="#fff"/><circle cx="10" cy="10" r="10" transform="translate(348.334 3534) rotate(90)"/><circle cx="10" cy="10" r="10" transform="translate(320 3582.334) rotate(180)"/><circle cx="7" cy="7" r="7" transform="translate(345.334 3537) rotate(90)" fill="#fff"/><circle cx="7" cy="7" r="7" transform="translate(317 3579.335) rotate(180)" fill="#fff"/><circle cx="3" cy="3" r="3" transform="translate(307 3541)"/><circle cx="3" cy="3" r="3" transform="translate(307 3569)"/><circle cx="3" cy="3" r="3" transform="translate(335 3541)"/><circle cx="3" cy="3" r="3" transform="translate(335 3569)"/><path d="M9375.828,29.736h0a14,14,0,0,0-24.341-.566c-.324-.285-.634-.577-.921-.867a19.453,19.453,0,0,1-1.316-1.458,14,14,0,0,0,0-23.958,19.231,19.231,0,0,1,2.239-2.322,14.11,14.11,0,0,0,5.014,4.929,13.975,13.975,0,0,0,7,1.872A14,14,0,0,0,9375.828,0a19.152,19.152,0,0,1,2.595,2.5,14.007,14.007,0,0,0,0,24.728c-.307.358-.64.718-.991,1.071a18.908,18.908,0,0,1-1.6,1.433Zm5.87-7.945h0a18.865,18.865,0,0,0,1.3-6.923,19.337,19.337,0,0,0-.275-3.266,19.128,19.128,0,0,1,.28,3.266,18.852,18.852,0,0,1-1.3,6.923Z" transform="translate(-9039.248 3543)"/></g></g></svg>