<svg xmlns="http://www.w3.org/2000/svg" xmlns:xlink="http://www.w3.org/1999/xlink" width="555.786" height="61.047" viewBox="0 0 555.786 61.047"><defs><clipPath id="a"><path d="M60.48-53.55H37.107v48.7h9.135v-40.32H60.48Zm-2.016,2.079v4.284H43.974V-6.93h-4.6V-51.471Zm40.194.252-9.324-.315-.441.441c.252,11.718-.63,19.467-2.079,25.074-2.9,11.214-10.962,18.9-22.869,24.444l6.3,7.056a1.175,1.175,0,0,0,.63.315,2.4,2.4,0,0,0,.819-.252C82.656.189,91.035-8.505,94.878-19.152A50.009,50.009,0,0,0,117.684,5.1a2.356,2.356,0,0,0,.945.315.871.871,0,0,0,.693-.378l5.985-7.812C112.014-9.7,103.194-17.829,98.28-33.39A172.316,172.316,0,0,0,99.1-50.778Zm79.38,51.03L177.786-9.2l-.5-.378a184.563,184.563,0,0,1-19.4,1.26c-7.434,0-12.789-.945-12.789-5.166,0-2.961,2.205-5.607,7.119-8.442a6.489,6.489,0,0,0,4.347,1.7,4.644,4.644,0,0,0,4.536-4.095,4.067,4.067,0,0,1,1.7-3.15c3.654-1.575,9.261-3.717,14.742-5.544l.252-.5-3.717-8.253-.63-.252a180.8,180.8,0,0,0-18.459,7.938,171.1,171.1,0,0,1-8.946-14.679l-.63-.189-7.623,3.969-.126.63a172.569,172.569,0,0,0,9.2,14.994c-6.678,4.725-11.4,10.206-11.4,15.939,0,9.891,7.245,14.49,22.365,14.49,7.938,0,14.049-.252,19.845-.693Zm28.791-37.422a121.293,121.293,0,0,0,4.914-14.3l-.315-.567-7.875-1.953-.567.315c-2.709,11.718-7.056,21.672-13.041,29.673l3.528,7.5c.189.378.441.63.693.63s.5-.189.819-.567a35.29,35.29,0,0,0,3.276-5.292v8.631l-.315,19.467h8.883V-28.854l5.607,5.1a1.735,1.735,0,0,0,.945.5,1.706,1.706,0,0,0,1.2-.756,81.924,81.924,0,0,0,6.741-10.647h1.071v19.467l-.315,21.168h9.45l-.252-13.167H239.4l7.875.189.5-.441v-7.245l-.5-.441-7.875.189h-8.253v-6.237h8l7.56.189.5-.441v-7.245l-.5-.441-7.56.189h-8V-34.65h9.45l8.883.189.5-.441V-42.21l-.5-.441-8.883.189H225.225c1.323-2.961,2.583-5.985,3.528-8.757l-.126-.693-8.127-2.52-.5.126A74.588,74.588,0,0,1,206.829-29.3Zm95.13,39.123V5.1h9.261L310.9-8v-8.442l.189-6.93-.441-.441-7.182.189H292.7l-7.308-.189-.378.441.189,6.93v8.505l-.315,13.419h9.009V1.512Zm0-7.371h-8.064V-16.254h8.064Zm-29.8,7.371V5.1h8.946L280.791-8v-8.442l.189-6.93-.441-.441-7.245.189h-9.7l-7.308-.189-.378.441.189,6.93v8.505L255.78,5.481h8.631V1.512Zm0-7.371h-7.749V-16.254h7.749ZM276-28.224h14.931l10.143.189.441-.441-.189-9.009v-6.426l.189-7.371-.441-.441-10.143.189H276l-10.143-.189-.441.441.189,7.812v7.056l-.189,7.938.441.441Zm-1.638-7.56v-8.19h17.892v8.19Zm64.953,3.591c-.693,9.324-2.079,13.608-4.536,17.64-3.15,5.229-8.442,10.017-16.821,13.167l6.8,6.111a1.175,1.175,0,0,0,.63.315,2.4,2.4,0,0,0,.819-.252c8.127-3.654,13.545-8.127,17.64-15.057,3.024-5.04,4.788-10.206,5.607-21.924h12.348c-.063,8.19-.441,15.372-1.008,20.6-.567,4.977-2.016,6.174-5.166,6.237-2.394.063-4.347.063-7.749-.126L351.6,3.213a1.648,1.648,0,0,0,1.827,1.2h4.221c7.245,0,11.718-3.4,12.726-11.592,1.008-7.749,1.26-18.648,1.512-32.634l-.5-.441-10.962.189H349.839c.126-3.465.189-7.371.189-11.781l-.441-.441H340.2l-.441.441c0,4.473,0,8.379-.126,11.781h-7.875l-10.647-.189-.5.378v7.371l.441.5,10.71-.189Zm90.594-19.719a37.912,37.912,0,0,1,6.174,6.552h.63l3.276-2.394.063-.63a38.116,38.116,0,0,0-6.237-6.489l-.63.063-3.213,2.331Zm-5.922,3.969a39.8,39.8,0,0,1,6.237,6.8h.63l3.465-2.457.063-.63a40.4,40.4,0,0,0-6.426-6.678l-.63.063-3.276,2.331ZM383.04,1.449l8.316,2.079.693-.189c3.465-12.222,6.615-21.987,10.836-33.957,1.575-.126,3.024-.252,4.158-.252,2.772,0,3.213.756,3.213,4.536a69.8,69.8,0,0,1-2.268,16.443c-.945,2.961-1.827,3.339-3.843,3.339a22.006,22.006,0,0,1-6.3-1.386l.756,8.946c.063.882.252,1.008.693,1.134a29.929,29.929,0,0,0,7.749,1.134c3.339,0,7.5-1.512,9.765-8.631,1.7-4.914,2.835-13.23,2.9-21.546.063-9.2-4.851-12.411-10.08-12.411-1.2,0-2.394.063-3.654.126q1.607-4.631,3.591-10.017l-.189-.693-8.505-2.079-.63.315c-1.638,4.851-3.087,9.324-4.6,13.671-4.347.63-9.009,1.2-13.986,1.575l-.378.441,1.386,7.623.5.378c3.15-.378,6.552-.819,9.45-1.26-3.213,9.639-6.363,19.215-9.765,30.177Zm37.233-37.737c4.788,5.355,8.379,12.789,10.836,20.034l.567.126,7.875-4.536.252-.63a62.3,62.3,0,0,0-12.1-19.845h-.63L420.4-36.918Zm56.511-12.6V-53.55l-.5-.441h-8.316l-.441.5v4.6H453.411l-9.576-.189-.378.378v6.678l.441.378,9.513-.189h14.112v3.465H458.64l-8.316-.189-.378.378v6.552l.441.378,8.253-.189h27.4l8.316.189.378-.315v-6.678l-.378-.315-8.316.189h-9.261v-3.465h14.679l9.576.189.378-.315v-6.8l-.378-.315-9.576.189ZM443.9-21.672l-.315,7.308h9.072v-7.182H492.03v7.056h9.324l-.315-7.182v-1.7l.189-4.977-.441-.441-10.458.189H454.608l-10.458-.189-.441.441.189,5.544ZM494.172-9.135c-.189,3.087-.567,4.725-1.323,5.418-.567.567-2.2.756-5.8.756-3.276,0-3.528-.189-3.528-1.827V-19.026l-.5-.441h-7.938l-.441.441V-8.757l-.126,7.434c0,5.166,1.575,6.489,11.277,6.489,8,0,11.34-.378,13.1-1.764,1.953-1.512,2.961-3.969,3.339-8.442.063-.945-.189-1.134-1.071-1.449Zm-25.263-10.08-7.938-.315-.5.441C460.4-7.749,455.8-3.276,442.638-1.008l4.851,6.615a1.111,1.111,0,0,0,.945.567,3.772,3.772,0,0,0,.756-.126c14.616-3.15,20.1-10.584,20.286-24.822Zm54.81-31.626a103.183,103.183,0,0,1-2.079,13.23c-1.26,5.544-2.394,10.647-2.394,15.5a25.047,25.047,0,0,0,2.52,10.962l.63.252,7.938-1.89.315-.63a22.315,22.315,0,0,1-1.638-7.812,18.053,18.053,0,0,1,1.323-7.686c1.2-3.15,4.221-6.363,6.615-6.363a3.581,3.581,0,0,1,3.78,2.52c.882,2.016,1.2,5.67,1.2,9.576,0,11.4-3.465,17.451-18.27,21.105l6.489,6.363a1.762,1.762,0,0,0,1.2.567,5.83,5.83,0,0,0,1.2-.252C547.407-.441,552.2-9.387,552.2-22.428c0-6.993-1.008-12.159-3.717-15.939-2.772-3.78-5.544-4.977-9.135-4.977a10.344,10.344,0,0,0-8.82,4.851c.693-2.331,1.2-3.717,1.638-5.544.378-1.827.63-3.276,1.008-6.174l-.441-.5-8.505-.567ZM569.52,5.67h23.373v-48.7h-9.135v40.32H569.52Zm2.016-2.079V-.693h14.49V-40.95h4.6V3.591Z" transform="translate(367.893 1045)" fill="#ff0007"/></clipPath><linearGradient id="b" x1="1" x2="0" y2="1" gradientUnits="objectBoundingBox"><stop offset="0" stop-color="#d80000"/><stop offset="0.232" stop-color="#fe4b0a"/><stop offset="0.345" stop-color="#fd6b36"/><stop offset="0.429" stop-color="#ff8321"/><stop offset="0.601" stop-color="#fdb72b"/><stop offset="0.709" stop-color="#fed02f"/><stop offset="0.847" stop-color="#ffe984"/><stop offset="1" stop-color="#fffad1"/></linearGradient></defs><g transform="translate(-405 -990.127)" clip-path="url(#a)"><rect width="92" height="566" transform="translate(400 1062) rotate(-90)" fill="url(#b)"/></g></svg>